<svg width="122" height="60" viewBox="0 0 122 60" fill="none" xmlns="http://www.w3.org/2000/svg">
<path d="M7.27296 10.3091L12.0465 0.309059L0.499461 0.30906L5.27297 10.3091L7.27296 10.3091ZM120.273 31.2287L121.273 31.2287L121.273 30.2287L120.273 30.2287L120.273 31.2287ZM6.27297 31.2282L5.27297 31.2282L5.27297 32.2282L6.27296 32.2282L6.27297 31.2282ZM119.273 31.2287L119.272 59.2282L121.272 59.2282L121.273 31.2287L119.273 31.2287ZM5.27297 9.30906L5.27297 31.2282L7.27297 31.2282L7.27297 9.30906L5.27297 9.30906ZM6.27296 32.2282L120.273 32.2287L120.273 30.2287L6.27297 30.2282L6.27296 32.2282Z" fill="url(#paint0_linear_226_1113)"/>
<defs>
<linearGradient id="paint0_linear_226_1113" x1="98.7612" y1="79.1815" x2="12.273" y2="-11.0232" gradientUnits="userSpaceOnUse">
<stop stop-color="#0000AF"/>
<stop offset="1" stop-color="#040489"/>
</linearGradient>
</defs>
</svg>
