<svg width="27" height="29" viewBox="0 0 27 29" fill="none" xmlns="http://www.w3.org/2000/svg">
<path d="M22.5734 15.3255C22.5579 12.9484 23.7515 11.1569 26.1618 9.83592C24.8137 8.09319 22.7742 7.1347 20.0858 6.94997C17.5403 6.76873 14.7554 8.28838 13.7356 8.28838C12.6579 8.28838 10.1936 7.01271 8.25451 7.01271C4.25279 7.06847 0 9.89168 0 15.6357C0 17.3331 0.343777 19.0863 1.03133 20.8917C1.95064 23.2688 5.26481 29.093 8.72189 28.9989C10.5296 28.9605 11.8082 27.8417 14.1605 27.8417C16.4433 27.8417 17.6253 28.9989 19.6416 28.9989C23.1296 28.9536 26.127 23.6592 27 21.2751C22.3223 19.2849 22.5734 15.4475 22.5734 15.3255ZM18.5137 4.69489C20.4721 2.59665 20.2944 0.686632 20.2365 0C18.506 0.0906215 16.5051 1.06306 15.3657 2.25857C14.1103 3.54121 13.3725 5.12708 13.5309 6.91511C15.4004 7.04408 17.1077 6.1762 18.5137 4.69489Z" fill="white"/>
</svg>
