<svg width="26" height="24" viewBox="0 0 26 24" fill="none" xmlns="http://www.w3.org/2000/svg">
<path d="M11.3411 13.9195H12.3849L11.8612 12.7953L11.3411 13.9195Z" fill="white"/>
<path fill-rule="evenodd" clip-rule="evenodd" d="M7.29517 0C1.95369 0 0 1.80309 0 6.73269V17.2673C0 22.1969 1.95369 24 7.29517 24H18.7014C24.0427 24 26 22.1969 26 17.2673V6.73269C26 1.80309 24.0463 0 18.7048 0H7.29517ZM11.0841 14.486L10.7744 15.1401H10.0693L11.5687 12.0002H12.178L13.6713 15.1401H12.9475L12.6417 14.486H11.0841ZM22.4297 15.1378H23.1111V12H22.4297V15.1378ZM19.7175 13.7899H20.9736V13.2177H19.7175V12.5746H21.5409V12.0023H19.0362V15.1399H21.6065V14.5676H19.7175V13.7899ZM17.0098 14.1606L16.2373 12H15.6735L14.9009 14.1606L14.149 12.0017H13.4139L14.6004 15.1419H15.1719L15.9458 13.0792L16.7196 15.1419H17.2961L18.4795 12.0017H17.7634L17.0098 14.1606ZM9.02907 13.7986C9.02907 14.3093 8.75427 14.5823 8.25525 14.5823C7.75351 14.5823 7.47726 14.3014 7.47726 13.7768V12.0021H6.78661V13.7986C6.78661 14.6822 7.31865 15.1889 8.24585 15.1889C9.18224 15.1889 9.71908 14.6726 9.71908 13.7723V12.0002H9.02907V13.7986ZM5.13888 12.0002H5.82911V15.1421H5.13888V13.8661H3.57955V15.1421H2.8889V12.0002H3.57955V13.2675H5.13888V12.0002ZM8.66667 4C8.66667 6.20563 10.6104 8 13 8C15.3894 8 17.3333 6.20563 17.3333 4H16.7212C16.7212 5.8939 15.0517 7.4348 13 7.4348C10.9483 7.4348 9.27876 5.8939 9.27876 4H8.66667Z" fill="white"/>
</svg>
