<svg width="39" height="39" viewBox="0 0 39 39" fill="none" xmlns="http://www.w3.org/2000/svg">
<path d="M12.1343 4.06511C11.9072 4.23269 11.7187 4.44699 11.5815 4.69358C11.4443 4.94016 11.3615 5.2133 11.3387 5.49458L11.184 6.76743L8.63579 6.76743C8.07275 6.76825 7.53299 6.99224 7.1348 7.39031C6.73661 7.78839 6.51246 8.32808 6.51147 8.89112L6.51147 33.2878C6.51312 33.8501 6.7373 34.3889 7.13501 34.7864C7.53273 35.1839 8.07164 35.4077 8.63393 35.4091L25.6049 35.4091C26.062 35.4076 26.5066 35.2591 26.8729 34.9855C27.2391 34.7118 27.5075 34.3275 27.6384 33.8895C28.1612 33.9016 28.6692 33.7148 29.0596 33.3669C29.45 33.0189 29.6937 32.5357 29.7416 32.015L32.4999 7.51262L32.4999 7.30006C32.4999 6.23977 31.7043 5.28513 30.6975 5.17885L13.6719 3.58779C13.3967 3.56013 13.1187 3.58814 12.8546 3.67014C12.5904 3.75214 12.3454 3.88646 12.1343 4.06511ZM26.6658 33.2878C26.6648 33.5689 26.5527 33.8381 26.3539 34.0367C26.1551 34.2354 25.8859 34.3473 25.6049 34.3481L8.63393 34.3481C8.35292 34.3473 8.08364 34.2354 7.88487 34.0367C7.68611 33.8381 7.574 33.5689 7.57301 33.2878L7.57301 8.89112C7.57399 8.61011 7.6861 8.3409 7.88487 8.14225C8.08364 7.9436 8.35291 7.83165 8.63393 7.83083L8.82411 7.83083L25.6049 7.83083C25.8859 7.83165 26.1551 7.9436 26.3539 8.14225C26.5527 8.3409 26.6648 8.61011 26.6658 8.89112L26.6658 33.2878ZM13.4599 4.6487L30.4843 6.23977C30.7652 6.26882 31.0232 6.40777 31.2021 6.62631C31.3809 6.84486 31.4661 7.12525 31.439 7.40634L28.6813 31.8559C28.6555 32.1002 28.5466 32.3283 28.3729 32.5021C28.1991 32.6758 27.971 32.7847 27.7267 32.8105L27.7267 8.89112C27.725 8.32894 27.501 7.79026 27.1034 7.39279C26.7058 6.99533 26.167 6.77139 25.6049 6.76991L12.1871 6.76991L12.2915 5.54989C12.2915 5.28513 12.4506 5.01974 12.6644 4.86064C12.8782 4.70153 13.1946 4.59525 13.4599 4.6487Z" fill="#0000AF"/>
<path d="M7.50879 25.9695L7.50879 26.4695L8.00879 26.4695L14.9013 26.4695C15.7221 26.4695 16.5093 26.1434 17.0897 25.563C17.6701 24.9826 17.9961 24.1955 17.9961 23.3747C17.9961 22.9683 17.9161 22.5658 17.7605 22.1904C17.605 21.8149 17.3771 21.4737 17.0897 21.1863C16.8023 20.899 16.4611 20.671 16.0857 20.5155C15.7102 20.3599 15.3077 20.2799 14.9013 20.2799L8.00879 20.2799L7.50879 20.2799L7.50879 20.7799L7.50879 25.9695Z" stroke="#0000AF" stroke-miterlimit="10"/>
<path d="M7.01123 29.9794L13.2176 29.9794" stroke="#0000AF" stroke-miterlimit="10" stroke-linecap="round"/>
</svg>
