<svg width="25" height="23" viewBox="0 0 25 23" fill="none" xmlns="http://www.w3.org/2000/svg">
<path fill-rule="evenodd" clip-rule="evenodd" d="M19.2662 14.5554L16.1189 11.5192L19.2693 8.46274L18.8355 8.01569C21.3697 9.36231 23.2791 10.3719 23.6635 10.566C24.9795 11.2483 24.3107 12.1269 23.6635 12.4589C23.5235 12.5261 22.3556 13.1452 20.623 14.0636L20.6215 14.0644C20.3428 14.2121 20.0495 14.3677 19.7435 14.5301C19.4458 14.688 19.1361 14.8523 18.8161 15.022L19.2662 14.5554ZM16.6294 16.1801L13.9646 13.6093L4.97189 22.334C7.96713 20.7554 12.6846 18.2678 16.6294 16.1801ZM0.0172785 22.9611L11.8043 11.5253L0.0219219 0.15869C0.00757643 0.262688 0 0.374355 0 0.493996V22.647C0 22.7559 0.00578977 22.8608 0.0172785 22.9611ZM4.91629 0.711893L13.9587 9.43517L16.6121 6.86079C14.0076 5.49064 8.37743 2.52921 4.91629 0.711893Z" fill="white"/>
</svg>
