<svg width="59" height="59" viewBox="0 0 59 59" fill="none" xmlns="http://www.w3.org/2000/svg">
<rect width="59" height="59" rx="12" fill="#0000AF"/>
<g clip-path="url(#clip0_197_2144)">
<path d="M44.0586 34.7437C44.805 32.9212 45.1875 30.9929 45.1875 29C45.1875 21.2814 39.2987 14.7502 31.6875 13.9053V11.5625L28.5982 13.8794C20.8543 14.5904 14.8125 21.1976 14.8125 29C14.8125 29.6306 14.8598 30.2628 14.9374 30.8866C13.4946 32.0206 12.5625 33.7768 12.5625 35.75C12.5625 38.1485 13.9373 40.2281 15.9375 41.2546V43.625C15.9375 44.5554 16.6946 45.3125 17.625 45.3125H19.875C20.8054 45.3125 21.5625 44.5554 21.5625 43.625V41.6163C24.0628 43.2937 26.9614 44.1875 30 44.1875H36.4806C37.6162 45.5606 39.3324 46.4375 41.25 46.4375C44.6616 46.4375 47.4375 43.6616 47.4375 40.25C47.4375 37.8498 46.0611 35.7697 44.0586 34.7437ZM31.0828 14.9786C38.361 15.5321 44.0625 21.6914 44.0625 29C44.0625 30.8472 43.7076 32.6343 43.0157 34.3224C42.456 34.1553 41.8637 34.0625 41.25 34.0625C41.0486 34.0625 40.8495 34.0737 40.6532 34.0929C41.4103 32.51 41.8125 30.773 41.8125 29C41.8125 22.9008 37.2416 17.8473 31.1807 17.246L30.5625 17.1847V18.3125L27.5627 16.0625L30.5625 13.8125V14.9386L31.0828 14.9786ZM35.0912 39.6875H30C28.0307 39.6875 26.1272 39.1475 24.4594 38.1327C24.7665 37.3987 24.9375 36.5943 24.9375 35.75C24.9375 35.5599 24.9257 35.3731 24.9088 35.1875H36.1875V23.9375H32.8125V34.0625H31.6875V26.1875H28.3125V34.0625H27.1875V28.4375H23.8125V32.2034C22.7989 30.7612 21.189 29.7684 19.3418 29.5923C19.3311 29.3943 19.3125 29.1969 19.3125 29C19.3125 23.519 23.3732 18.9971 28.7884 18.3879L31.6875 20.5625V18.4441C36.8603 19.2581 40.6875 23.6911 40.6875 29C40.6875 30.9119 40.1745 32.7783 39.2109 34.4152C36.9694 35.201 35.3128 37.2378 35.0912 39.6875ZM24.9375 34.0625V29.5625H26.0625V34.0625H24.9375ZM30.5625 34.0625H29.4375V27.3125H30.5625V34.0625ZM33.9375 34.0625V25.0625H35.0625V34.0625H33.9375ZM15.9375 29C15.9375 22.484 20.4887 16.8691 26.6413 15.347L25.6873 16.0625L27.5385 17.4513C22.1239 18.5853 18.1875 23.3278 18.1875 29C18.1875 29.1957 18.2066 29.3926 18.2168 29.5895C17.4236 29.6576 16.6749 29.8775 15.9954 30.2178C15.9606 29.8128 15.9375 29.4061 15.9375 29ZM13.6875 35.75C13.6875 32.9589 15.9589 30.6875 18.75 30.6875C21.5411 30.6875 23.8125 32.9589 23.8125 35.75C23.8125 37.9488 22.4006 39.8197 20.4375 40.5172V36.7715C20.6141 36.8345 20.802 36.875 21 36.875C21.9304 36.875 22.6875 36.1179 22.6875 35.1875C22.6875 34.2571 21.9304 33.5 21 33.5C20.2676 33.5 19.6489 33.9719 19.416 34.625H18.0834C17.8511 33.9719 17.2324 33.5 16.5 33.5C15.5696 33.5 14.8125 34.2571 14.8125 35.1875C14.8125 36.1179 15.5696 36.875 16.5 36.875C16.698 36.875 16.8859 36.8345 17.0625 36.7715V40.5172C15.0994 39.8197 13.6875 37.9488 13.6875 35.75ZM18.1875 35.75H19.3125V40.7793C19.1274 40.8001 18.9401 40.8125 18.75 40.8125C18.5599 40.8125 18.3726 40.8001 18.1875 40.7793V35.75ZM20.4375 35.1875C20.4375 34.8776 20.6901 34.625 21 34.625C21.3099 34.625 21.5625 34.8776 21.5625 35.1875C21.5625 35.4974 21.3099 35.75 21 35.75C20.6901 35.75 20.4375 35.4974 20.4375 35.1875ZM17.0625 35.1875C17.0625 35.4974 16.8099 35.75 16.5 35.75C16.1901 35.75 15.9375 35.4974 15.9375 35.1875C15.9375 34.8776 16.1901 34.625 16.5 34.625C16.8099 34.625 17.0625 34.8776 17.0625 35.1875ZM19.875 44.1875H17.625C17.3151 44.1875 17.0625 43.9349 17.0625 43.625V41.6979C17.5997 41.8503 18.1644 41.9375 18.75 41.9375C19.3356 41.9375 19.9003 41.8503 20.4375 41.6979V43.625C20.4375 43.9349 20.1849 44.1875 19.875 44.1875ZM30 43.0625C27.2466 43.0625 24.6169 42.2716 22.3359 40.7827C22.9637 40.3338 23.5048 39.773 23.9284 39.1261C25.7599 40.2269 27.8445 40.8125 30 40.8125H35.0912C35.1643 41.6169 35.3932 42.3757 35.7459 43.0625H30ZM38.4757 44.4794L38.6468 43.1103C38.8104 41.8002 39.9298 40.8125 41.25 40.8125C42.5702 40.8125 43.6896 41.8002 43.8532 43.1103L44.0243 44.4794C43.2266 45.0048 42.2743 45.3125 41.25 45.3125C40.2257 45.3125 39.2734 45.0048 38.4757 44.4794ZM40.125 38.5625C40.125 37.9421 40.6296 37.4375 41.25 37.4375C41.8704 37.4375 42.375 37.9421 42.375 38.5625C42.375 39.1829 41.8704 39.6875 41.25 39.6875C40.6296 39.6875 40.125 39.1829 40.125 38.5625ZM45.0463 43.5879L44.9692 42.9714C44.8089 41.6861 44.004 40.6179 42.9049 40.0745C43.2711 39.674 43.5 39.1464 43.5 38.5625C43.5 37.3216 42.4909 36.3125 41.25 36.3125C40.0091 36.3125 39 37.3216 39 38.5625C39 39.1464 39.2289 39.674 39.5946 40.0739C38.4954 40.6173 37.6911 41.6855 37.5302 42.9708L37.4531 43.5873C36.6684 42.6957 36.1875 41.5291 36.1875 40.25C36.1875 37.4589 38.4589 35.1875 41.25 35.1875C44.0411 35.1875 46.3125 37.4589 46.3125 40.25C46.3125 41.5291 45.8316 42.6957 45.0463 43.5879Z" fill="url(#paint0_linear_197_2144)"/>
</g>
<defs>
<linearGradient id="paint0_linear_197_2144" x1="45.4769" y1="40.743" x2="10.8703" y2="36.7926" gradientUnits="userSpaceOnUse">
<stop stop-color="white"/>
<stop offset="0.21875" stop-color="#F6F6FF"/>
<stop offset="1" stop-color="#C8C8FF"/>
</linearGradient>
<clipPath id="clip0_197_2144">
<rect width="36" height="36" fill="white" transform="translate(12 11)"/>
</clipPath>
</defs>
</svg>
