<svg width="59" height="59" viewBox="0 0 59 59" fill="none" xmlns="http://www.w3.org/2000/svg">
<rect width="59" height="59" rx="12" fill="#0000AF"/>
<g clip-path="url(#clip0_197_2063)">
<path d="M46.3125 27.3125C45.4474 27.3125 44.6604 27.6421 44.0625 28.1788V23.375C44.0625 22.4446 43.3054 21.6875 42.375 21.6875C42.1528 21.6875 41.9413 21.7331 41.7467 21.8118C41.6286 21.3815 41.3462 21.0147 40.962 20.7937C41.1442 20.1243 41.2494 19.4279 41.2494 18.7124C41.2494 17.2415 40.8371 15.8043 40.0575 14.5567C38.8864 12.6819 36.867 11.5625 34.6558 11.5625C32.979 11.5625 31.3365 12.2431 30.1502 13.4294L30 13.5796L29.8498 13.4294C28.6635 12.2431 27.0216 11.5625 25.3442 11.5625C23.133 11.5625 21.1136 12.6819 19.9419 14.5567C19.1623 15.8043 18.75 17.2415 18.75 18.7226C18.75 19.4341 18.8552 20.1271 19.0369 20.7937C18.6533 21.0147 18.3714 21.3809 18.2533 21.8112C18.0587 21.7331 17.8472 21.6875 17.625 21.6875C16.6946 21.6875 15.9375 22.4446 15.9375 23.375V28.1788C15.3396 27.6421 14.5526 27.3125 13.6875 27.3125C13.0671 27.3125 12.5625 27.8171 12.5625 28.4375L12.5659 28.4994C12.5693 28.5343 12.9495 31.9762 13.0806 35.0266C13.1391 36.3851 13.6459 37.7041 14.5093 38.7403L15.9375 40.4536V46.4375H24.9375V40.3805C25.6738 38.8623 26.0625 37.172 26.0625 35.4839V28.2957L30 31.4041L33.9375 28.2957V35.4839C33.9375 37.172 34.3262 38.8623 35.0625 40.3805V46.4375H44.0625V40.4536L45.4912 38.7391C46.3541 37.703 46.8609 36.3845 46.9194 35.0261C47.0505 31.9756 47.4307 28.5337 47.4341 28.4988L47.4375 28.4375C47.4375 27.8171 46.9329 27.3125 46.3125 27.3125ZM20.8959 15.1535C21.8606 13.6094 23.5234 12.6875 25.3442 12.6875C26.7251 12.6875 28.0774 13.2477 29.0544 14.2248L30 15.1704L30.9456 14.2248C31.9226 13.2477 33.2749 12.6875 34.6558 12.6875C36.4766 12.6875 38.1394 13.6094 39.1041 15.1535C39.7723 16.2211 40.125 17.4524 40.125 18.7226C40.125 20.7909 39.1941 22.7124 37.5707 23.9938L35.3854 25.7189C35.364 25.6976 35.3438 25.6773 35.3224 25.6554C34.5889 24.9213 33.573 24.5 32.5352 24.5H32.0925L31.8568 23.7924C32.1656 23.5218 32.4204 23.1927 32.5853 22.8125H32.8862C33.7761 22.8125 34.5 22.0554 34.5 21.125C34.5 20.7875 34.4027 20.4742 34.239 20.2104L34.4809 19.3087C34.527 19.1253 34.5501 18.9358 34.5501 18.7456C34.5501 17.7725 33.9358 16.895 33.0206 16.562L30.6367 15.6952C30.2812 15.5658 29.9077 15.5 29.5281 15.5C28.5127 15.5 27.5424 15.9849 26.9338 16.7977L26.7983 16.9777C26.0321 17.12 25.4505 17.7933 25.4505 18.5999C25.4505 19.1709 25.635 19.8515 25.752 20.2289C25.5945 20.4894 25.5 20.7948 25.5 21.125C25.5 22.0554 26.2239 22.8125 27.1132 22.8125H27.4142C27.579 23.1927 27.8338 23.5218 28.1426 23.7924L27.9069 24.5H27.4643C26.427 24.5 25.4111 24.9213 24.6771 25.6565C24.6551 25.6784 24.6354 25.6981 24.6141 25.7195L22.4288 23.9943C20.8059 22.7124 19.875 20.7909 19.875 18.7124C19.875 17.4524 20.2277 16.2211 20.8959 15.1535ZM27.1132 21.6875C26.8438 21.6875 26.625 21.4355 26.625 21.125C26.625 20.8145 26.8438 20.5625 27.1132 20.5625H27.1931C27.192 20.5912 27.1875 20.6199 27.1875 20.6486V21.6875H27.1132ZM27.4817 19.4375H27.1132C26.9743 19.4375 26.8421 19.4617 26.7139 19.496C26.6396 19.2001 26.5755 18.866 26.5755 18.5994C26.5755 18.3097 26.8106 18.0746 27.1003 18.0746H27.3816L27.8338 17.4716C28.38 16.7431 29.3976 16.4411 30.252 16.7521L32.6364 17.6189C33.1084 17.7911 33.4251 18.2433 33.4251 18.7456C33.4251 18.8435 33.4132 18.9414 33.3919 19.0269L33.2676 19.4898C33.1449 19.4589 33.0184 19.4375 32.8867 19.4375H32.8125H32.25C30.8173 19.4375 29.0156 18.3991 28.9976 18.389L28.6967 18.2141L28.4059 18.4047C28.0043 18.668 27.6909 19.0263 27.4817 19.4375ZM32.8125 20.5625H32.8867C33.1562 20.5625 33.375 20.8145 33.375 21.125C33.375 21.4355 33.1562 21.6875 32.8867 21.6875H32.8125V20.5625ZM28.3125 20.6486C28.3125 20.2312 28.4807 19.8374 28.7743 19.5466C29.3407 19.838 30.5198 20.3802 31.6875 20.5254V21.7224C31.6875 22.6342 30.9304 23.375 30 23.375C29.0696 23.375 28.3125 22.6342 28.3125 21.7224V20.6486ZM29.1416 24.3538C29.4139 24.4409 29.6991 24.5 30 24.5C30.3009 24.5 30.5861 24.4409 30.8584 24.3538L31.0502 24.9298L30 26.0964L28.9498 24.9298L29.1416 24.3538ZM17.0625 45.3125V43.0625H23.8125V45.3125H17.0625ZM24.9375 35.4839C24.9375 37.0426 24.5691 38.6041 23.8716 39.998L23.8125 40.1173V41.9375H17.0625V40.0464L15.3739 38.0197C14.6679 37.172 14.2528 36.092 14.205 34.9782C14.0818 32.1162 13.7432 28.9201 13.6909 28.4375C14.9301 28.4392 15.9375 29.4483 15.9375 30.6875V33.5V33.7812L16.9894 34.5699C17.8286 35.1993 18.4474 36.0577 18.7787 37.0528L19.8457 36.6967C19.4413 35.4839 18.687 34.4366 17.6644 33.6699L17.0625 33.2188V30.6875V23.375C17.0625 23.0645 17.3151 22.8125 17.625 22.8125C17.9349 22.8125 18.1875 23.0645 18.1875 23.375V31.25H19.3125V22.25C19.3125 22.1234 19.3603 22.0081 19.434 21.9131C19.6984 22.5071 20.0303 23.0696 20.4375 23.5826V31.25H21.5625V24.7272C21.6204 24.7762 21.6722 24.8302 21.7324 24.8774L22.6875 25.6317V31.25H23.8125V26.5194L24.9375 27.4076V35.4839ZM25.5073 26.4237C26.0288 25.9175 26.7381 25.625 27.4648 25.625H28.0622L30 27.7782L31.9378 25.625H32.5352C33.2619 25.625 33.9713 25.9175 34.4927 26.4237L30 29.9709L25.5073 26.4237ZM36.1875 45.3125V43.0625H42.9375V45.3125H36.1875ZM45.7956 34.9782C45.7477 36.0914 45.3326 37.172 44.6273 38.0191L42.9375 40.0464V41.9375H36.1875V40.1173L36.1284 39.9986C35.4309 38.6041 35.0625 37.0432 35.0625 35.4839V27.4076L36.1875 26.5194V31.25H37.3125V25.6317L38.2676 24.8774C38.3273 24.8302 38.379 24.7756 38.4375 24.7272V31.25H39.5625V23.5826C39.9692 23.069 40.3011 22.5065 40.5654 21.9125C40.6397 22.007 40.6875 22.1229 40.6875 22.25V31.25H41.8125V23.375C41.8125 23.0645 42.0651 22.8125 42.375 22.8125C42.6849 22.8125 42.9375 23.0645 42.9375 23.375V30.6875V33.2188L42.3356 33.6704C41.313 34.4371 40.5587 35.4839 40.1542 36.6972L41.2213 37.0533C41.5532 36.0577 42.1719 35.1993 43.0106 34.5704L44.0625 33.7812V33.5V30.6875C44.0625 29.4483 45.0699 28.4392 46.3091 28.4375C46.2568 28.9201 45.9182 32.1162 45.7956 34.9782Z" fill="url(#paint0_linear_197_2063)"/>
</g>
<defs>
<linearGradient id="paint0_linear_197_2063" x1="45.4769" y1="40.743" x2="10.8703" y2="36.7926" gradientUnits="userSpaceOnUse">
<stop stop-color="white"/>
<stop offset="0.21875" stop-color="#F6F6FF"/>
<stop offset="1" stop-color="#C8C8FF"/>
</linearGradient>
<clipPath id="clip0_197_2063">
<rect width="36" height="36" fill="white" transform="translate(12 11)"/>
</clipPath>
</defs>
</svg>
