<svg width="59" height="59" viewBox="0 0 59 59" fill="none" xmlns="http://www.w3.org/2000/svg">
<rect width="59" height="59" rx="12" fill="#0000AF"/>
<g clip-path="url(#clip0_197_1779)">
<path d="M42.5854 27.6224C42.3341 26.9173 41.666 26.4471 40.9174 26.4484C40.1696 26.4507 39.5041 26.9233 39.2557 27.6287H35.6059V25.2681H37.9666C38.2924 25.2681 38.5567 25.004 38.5568 24.6782C38.5568 24.6781 38.5568 24.678 38.5568 24.6779V22.2085C39.4787 21.8826 39.9619 20.871 39.636 19.9491C39.31 19.0271 38.2985 18.5439 37.3765 18.8699C36.4545 19.1958 35.9714 20.2073 36.2973 21.1293C36.4756 21.6335 36.8722 22.0302 37.3764 22.2085V24.0878H35.6059V22.9075C35.606 22.5816 35.3419 22.3174 35.0161 22.3173C35.016 22.3173 35.0159 22.3173 35.0158 22.3173H33.8355V19.2576C34.7574 18.9317 35.2406 17.9201 34.9146 16.9982C34.5887 16.0763 33.5772 15.5931 32.6552 15.919C31.7333 16.2449 31.2501 17.2564 31.576 18.1784C31.7542 18.6826 32.1509 19.0793 32.6551 19.2576V22.3172H30.2945V12.8953C30.2945 12.5695 30.0304 12.3052 29.7046 12.3052C29.7045 12.3052 29.7044 12.3052 29.7043 12.3052C22.4238 12.3052 16.7207 17.5763 16.7207 24.305C16.7207 27.5013 17.9895 31.7333 20.0323 35.3486C20.3992 35.9976 20.8778 36.68 21.3844 37.4027C22.4556 38.9297 23.6478 40.6468 23.7774 42.1416C23.3237 42.4623 23.0582 42.9868 23.0684 43.5423C23.0701 43.9414 23.2079 44.3279 23.459 44.6381C23.1097 44.9827 22.9144 45.4538 22.9174 45.9445C22.9185 46.9219 23.7105 47.714 24.6879 47.715H34.7207C35.7047 47.7089 36.4975 46.9063 36.4914 45.9222C36.4913 45.9158 36.4913 45.9094 36.4912 45.903C36.4908 45.423 36.2947 44.9639 35.948 44.6318C36.2024 44.3097 36.3406 43.9112 36.3402 43.5008C36.3384 42.5661 35.5792 41.8098 34.6445 41.8115C34.6196 41.8116 34.5946 41.8122 34.5697 41.8133H30.2945V30.5795H31.4748V32.35C31.4747 32.6758 31.7388 32.94 32.0647 32.9401C32.0647 32.9401 32.0649 32.9401 32.065 32.9401H33.8355V33.639C32.9135 33.9649 32.4304 34.9765 32.7564 35.8984C33.0824 36.8202 34.0939 37.3034 35.0158 36.9774C35.9377 36.6515 36.4208 35.6399 36.0948 34.7181C35.9166 34.2138 35.5199 33.8172 35.0158 33.639V32.35C35.0159 32.0241 34.7518 31.7599 34.4259 31.7598C34.4258 31.7598 34.4257 31.7598 34.4256 31.7598H32.6551V30.5795H35.0158C35.3416 30.5795 35.6059 30.3154 35.6059 29.9896C35.6059 29.9895 35.6059 29.9894 35.6059 29.9893V28.809H39.2557C39.5834 29.7284 40.5944 30.2082 41.5139 29.8805C42.4333 29.5529 42.913 28.5419 42.5854 27.6224ZM37.9666 19.9565C38.2925 19.9565 38.5568 20.2208 38.5568 20.5467C38.5568 20.8726 38.2925 21.1368 37.9666 21.1368C37.6407 21.1368 37.3764 20.8726 37.3764 20.5467C37.3767 20.2209 37.6408 19.9569 37.9666 19.9565ZM22.3509 36.7249C21.861 36.0264 21.3985 35.3671 21.0599 34.7677C19.141 31.3714 17.901 27.2644 17.901 24.305C17.901 18.4195 22.78 13.7708 29.1141 13.4982V17.6211C28.9575 17.6328 28.7976 17.647 28.6266 17.668C28.3761 17.6985 28.1727 17.885 28.1206 18.1319L27.9408 18.9872C27.7926 19.0224 27.6449 19.0622 27.4975 19.1065L26.9094 18.4506C26.7409 18.2621 26.471 18.2021 26.2385 18.3014C25.578 18.5862 24.9545 18.9503 24.3818 19.3854C24.1802 19.5374 24.0977 19.8008 24.1764 20.0408L24.4473 20.8661C24.3357 20.971 24.2271 21.0799 24.1219 21.1911L23.2975 20.9202C23.0577 20.8426 22.7949 20.9248 22.6422 21.1254C22.2064 21.6982 21.8421 22.322 21.5572 22.9829C21.4581 23.2155 21.5181 23.4852 21.7065 23.6538L22.3627 24.2417C22.3186 24.3875 22.2791 24.5337 22.2443 24.6803L21.3265 24.8635C21.0506 24.9185 20.8519 25.1608 20.8519 25.4422V27.4546C20.8519 27.736 21.0506 27.9782 21.3266 28.0333L22.2443 28.2165C22.2792 28.3629 22.3187 28.5091 22.3627 28.6551L21.7063 29.243C21.5182 29.4117 21.4582 29.6813 21.5571 29.9138C21.842 30.5747 22.2063 31.1985 22.642 31.7714C22.7946 31.9722 23.0575 32.0544 23.2973 31.9765L24.1218 31.7056C24.2273 31.8169 24.3356 31.9258 24.4471 32.0307L24.1762 32.8548C24.0976 33.0947 24.18 33.358 24.3814 33.5101C24.9541 33.946 25.5778 34.3104 26.2386 34.5954C26.4712 34.6941 26.7407 34.6341 26.9095 34.4461L27.4977 33.7902C27.6449 33.8347 27.7927 33.8744 27.9409 33.9095L28.1205 34.7642C28.1723 35.0114 28.3758 35.1982 28.6264 35.2288C28.7977 35.2497 28.9576 35.264 29.1143 35.2757V41.8134H24.9322C24.6909 40.0741 23.459 38.3049 22.3509 36.7249ZM24.3928 26.4483C24.3966 29.1516 26.4279 31.4218 29.1141 31.725V33.7545L29.0165 33.2899C28.9672 33.0547 28.7802 32.8728 28.5436 32.83C28.1938 32.7664 27.8499 32.6737 27.5155 32.5528C27.4514 32.53 27.3838 32.5184 27.3158 32.5182C27.148 32.5182 26.9882 32.5897 26.8763 32.7147L26.3213 33.3338C26.0138 33.1801 25.717 33.0058 25.4329 32.8122L25.6891 32.0324C25.7642 31.8039 25.6931 31.5528 25.5096 31.3974C25.2374 31.167 24.9848 30.9144 24.7543 30.6424C24.5984 30.4601 24.3481 30.3896 24.12 30.4637L23.3406 30.7202C23.1468 30.436 22.9725 30.1391 22.8187 29.8315L23.4382 29.2765C23.6169 29.1161 23.6808 28.8635 23.5999 28.6374C23.4792 28.3029 23.3865 27.959 23.3226 27.6092C23.2796 27.3707 23.095 27.1828 22.8572 27.1355L22.0322 26.9705V25.9262L22.8572 25.7614C23.0949 25.7141 23.2796 25.5262 23.3226 25.2877C23.3865 24.9377 23.4792 24.5936 23.5998 24.2589C23.6809 24.0327 23.6168 23.78 23.4379 23.6197L22.8189 23.0653C22.9728 22.7578 23.1471 22.4609 23.3404 22.1766L24.1202 22.4331C24.3483 22.5071 24.5985 22.4367 24.7545 22.2544C24.9855 21.9821 25.2383 21.7291 25.5103 21.4976C25.6931 21.3425 25.7638 21.0921 25.689 20.8643L25.4331 20.0845C25.7172 19.891 26.0139 19.7168 26.3212 19.5629L26.8762 20.1819C27.0367 20.3605 27.2891 20.4244 27.5153 20.3439C27.8497 20.223 28.1936 20.1302 28.5435 20.0666C28.78 20.0242 28.967 19.8425 29.0163 19.6073L29.1141 19.1427V21.1717C26.4279 21.4748 24.3966 23.7451 24.3928 26.4483ZM29.1141 22.3643V30.5323C26.8586 30.2094 25.2919 28.1191 25.6148 25.8636C25.8745 24.0494 27.2999 22.624 29.1141 22.3643ZM35.3109 45.9445C35.3106 46.2703 35.0465 46.5344 34.7207 46.5347H24.6879C24.356 46.5291 24.0915 46.2555 24.0971 45.9236C24.0972 45.9167 24.0975 45.9099 24.0978 45.903C24.098 45.5772 24.3621 45.3131 24.6879 45.3128H34.7207C35.0526 45.3184 35.3171 45.592 35.3115 45.9239C35.3115 45.9308 35.3112 45.9377 35.3109 45.9445ZM34.5697 42.9937C34.867 42.9663 35.1303 43.1851 35.1576 43.4824C35.1595 43.5024 35.1602 43.5223 35.1599 43.5423C35.1596 43.8681 34.8955 44.1322 34.5697 44.1325H24.8389C24.507 44.1269 24.2425 43.8534 24.2481 43.5214C24.2482 43.5145 24.2485 43.5077 24.2488 43.5008C24.2614 43.2066 24.5101 42.9784 24.8043 42.9911C24.8159 42.9916 24.8274 42.9925 24.8389 42.9936H34.5697V42.9937ZM34.4256 34.7106C34.7515 34.7106 35.0158 34.9749 35.0158 35.3008C35.0158 35.6267 34.7515 35.8909 34.4256 35.8909C34.0997 35.8909 33.8355 35.6267 33.8355 35.3008C33.8357 34.975 34.0998 34.711 34.4256 34.7106ZM33.2453 17.0057C33.5712 17.0057 33.8355 17.2699 33.8355 17.5958C33.8355 17.9218 33.5712 18.186 33.2453 18.186C32.9194 18.186 32.6551 17.9218 32.6551 17.5958C32.6554 17.2701 32.9195 17.0061 33.2453 17.0057ZM34.4256 29.3991H30.2945V23.4975H34.4256V29.3991ZM40.9174 28.809C40.5915 28.809 40.3273 28.5447 40.3273 28.2188C40.3273 27.8929 40.5915 27.6286 40.9174 27.6286C41.2433 27.6286 41.5076 27.8929 41.5076 28.2188C41.5073 28.5446 41.2432 28.8087 40.9174 28.809Z" fill="url(#paint0_linear_197_1779)"/>
<path d="M35.3969 39.2822C35.1888 39.6543 35.0047 40.0393 34.8457 40.4349L35.943 40.8695C36.0836 40.5205 36.2464 40.181 36.4303 39.8528L35.3969 39.2822Z" fill="url(#paint1_linear_197_1779)"/>
<path d="M36.7237 37.2036C36.4918 37.5368 36.2604 37.8756 36.0391 38.218L37.0298 38.8589C37.2442 38.5281 37.4681 38.2007 37.6926 37.8779L36.7237 37.2036Z" fill="url(#paint2_linear_197_1779)"/>
<path d="M38.0656 35.2402C37.8665 35.556 37.6446 35.8828 37.4121 36.2183L38.3815 36.8914C38.625 36.541 38.8567 36.1992 39.0645 35.8685L38.0656 35.2402Z" fill="url(#paint3_linear_197_1779)"/>
<path d="M39.175 33.1831C39.0059 33.537 38.829 33.8868 38.6445 34.2326L39.6854 34.7894C39.8784 34.4281 40.0634 34.0621 40.2401 33.6915L39.175 33.1831Z" fill="url(#paint4_linear_197_1779)"/>
<path d="M40.096 31.0171C39.9588 31.3819 39.8127 31.7473 39.6582 32.1098L40.7446 32.572C40.9054 32.1934 41.0575 31.8134 41.2008 31.432L40.096 31.0171Z" fill="url(#paint5_linear_197_1779)"/>
<path d="M42.6884 24.188L41.5081 24.1972L41.5087 24.3056C41.5087 24.6347 41.4934 24.9845 41.4629 25.3441L42.6392 25.4433C42.6723 25.0508 42.689 24.6681 42.689 24.3056L42.6884 24.188Z" fill="url(#paint6_linear_197_1779)"/>
<path d="M42.3875 21.6755L41.2383 21.9441C41.3245 22.3131 41.3901 22.6866 41.4348 23.0628L42.6071 22.9233C42.557 22.5037 42.4837 22.0871 42.3875 21.6755Z" fill="url(#paint7_linear_197_1779)"/>
<path d="M41.5396 19.2905L40.4785 19.8069C40.6444 20.1478 40.7915 20.4976 40.9189 20.8547L42.0306 20.4593C41.8888 20.0609 41.7249 19.6707 41.5396 19.2905Z" fill="url(#paint8_linear_197_1779)"/>
<path d="M40.1881 17.1538L39.2637 17.888C39.4999 18.1855 39.7202 18.4952 39.9235 18.8159L40.9211 18.1854C40.6953 17.8288 40.4506 17.4844 40.1881 17.1538Z" fill="url(#paint9_linear_197_1779)"/>
<path d="M38.4201 15.3525L37.668 16.262C37.9614 16.5047 38.2421 16.7623 38.5091 17.0337L39.3505 16.2061C39.0551 15.9059 38.7445 15.6211 38.4201 15.3525Z" fill="url(#paint10_linear_197_1779)"/>
<path d="M36.3328 13.9458L35.7715 14.9843C36.1086 15.1665 36.4386 15.3659 36.7521 15.5768L37.4109 14.597C37.0659 14.3654 36.7034 14.1464 36.3328 13.9458Z" fill="url(#paint11_linear_197_1779)"/>
<path d="M34.0195 12.9663L33.6621 14.0913C34.0298 14.2077 34.3915 14.3415 34.7375 14.4884L35.1992 13.4026C34.8191 13.2406 34.422 13.0942 34.0195 12.9663Z" fill="url(#paint12_linear_197_1779)"/>
<path d="M31.569 12.4248L31.418 13.5959C31.7986 13.6449 32.1796 13.7112 32.5502 13.7936L32.8055 12.641C32.4007 12.5516 31.9845 12.479 31.569 12.4248Z" fill="url(#paint13_linear_197_1779)"/>
<path d="M14.36 44.1536H13.1797V45.3339H14.36V44.1536Z" fill="url(#paint14_linear_197_1779)"/>
<path d="M14.36 46.5144H13.1797V47.6947H14.36V46.5144Z" fill="url(#paint15_linear_197_1779)"/>
<path d="M15.5417 45.334H14.3613V46.5143H15.5417V45.334Z" fill="url(#paint16_linear_197_1779)"/>
<path d="M13.1803 45.334H12V46.5143H13.1803V45.334Z" fill="url(#paint17_linear_197_1779)"/>
<path d="M46.819 12.2847H45.6387V13.465H46.819V12.2847Z" fill="url(#paint18_linear_197_1779)"/>
<path d="M46.819 14.6455H45.6387V15.8258H46.819V14.6455Z" fill="url(#paint19_linear_197_1779)"/>
<path d="M48.0006 13.4653H46.8203V14.6457H48.0006V13.4653Z" fill="url(#paint20_linear_197_1779)"/>
<path d="M45.6393 13.4651H44.459V14.6454H45.6393V13.4651Z" fill="url(#paint21_linear_197_1779)"/>
</g>
<defs>
<linearGradient id="paint0_linear_197_1779" x1="41.2286" y1="41.9332" x2="15.3066" y2="39.7632" gradientUnits="userSpaceOnUse">
<stop stop-color="white"/>
<stop offset="0.21875" stop-color="#F6F6FF"/>
<stop offset="1" stop-color="#C8C8FF"/>
</linearGradient>
<linearGradient id="paint1_linear_197_1779" x1="36.3412" y1="40.6103" x2="34.7687" y2="40.4311" gradientUnits="userSpaceOnUse">
<stop stop-color="white"/>
<stop offset="0.21875" stop-color="#F6F6FF"/>
<stop offset="1" stop-color="#C8C8FF"/>
</linearGradient>
<linearGradient id="paint2_linear_197_1779" x1="37.5996" y1="38.5886" x2="35.9588" y2="38.4015" gradientUnits="userSpaceOnUse">
<stop stop-color="white"/>
<stop offset="0.21875" stop-color="#F6F6FF"/>
<stop offset="1" stop-color="#C8C8FF"/>
</linearGradient>
<linearGradient id="paint3_linear_197_1779" x1="38.9716" y1="36.6218" x2="37.332" y2="36.4345" gradientUnits="userSpaceOnUse">
<stop stop-color="white"/>
<stop offset="0.21875" stop-color="#F6F6FF"/>
<stop offset="1" stop-color="#C8C8FF"/>
</linearGradient>
<linearGradient id="paint4_linear_197_1779" x1="40.1504" y1="34.5271" x2="38.5668" y2="34.3475" gradientUnits="userSpaceOnUse">
<stop stop-color="white"/>
<stop offset="0.21875" stop-color="#F6F6FF"/>
<stop offset="1" stop-color="#C8C8FF"/>
</linearGradient>
<linearGradient id="paint5_linear_197_1779" x1="41.1141" y1="32.3181" x2="39.583" y2="32.1447" gradientUnits="userSpaceOnUse">
<stop stop-color="white"/>
<stop offset="0.21875" stop-color="#F6F6FF"/>
<stop offset="1" stop-color="#C8C8FF"/>
</linearGradient>
<linearGradient id="paint6_linear_197_1779" x1="42.6201" y1="25.2383" x2="41.4027" y2="25.1026" gradientUnits="userSpaceOnUse">
<stop stop-color="white"/>
<stop offset="0.21875" stop-color="#F6F6FF"/>
<stop offset="1" stop-color="#C8C8FF"/>
</linearGradient>
<linearGradient id="paint7_linear_197_1779" x1="42.5301" y1="22.8363" x2="41.1714" y2="22.6832" gradientUnits="userSpaceOnUse">
<stop stop-color="white"/>
<stop offset="0.21875" stop-color="#F6F6FF"/>
<stop offset="1" stop-color="#C8C8FF"/>
</linearGradient>
<linearGradient id="paint8_linear_197_1779" x1="41.9433" y1="20.5993" x2="40.4029" y2="20.4248" gradientUnits="userSpaceOnUse">
<stop stop-color="white"/>
<stop offset="0.21875" stop-color="#F6F6FF"/>
<stop offset="1" stop-color="#C8C8FF"/>
</linearGradient>
<linearGradient id="paint9_linear_197_1779" x1="40.828" y1="18.5445" x2="39.1831" y2="18.3573" gradientUnits="userSpaceOnUse">
<stop stop-color="white"/>
<stop offset="0.21875" stop-color="#F6F6FF"/>
<stop offset="1" stop-color="#C8C8FF"/>
</linearGradient>
<linearGradient id="paint10_linear_197_1779" x1="39.2559" y1="16.7592" x2="37.5864" y2="16.5684" gradientUnits="userSpaceOnUse">
<stop stop-color="white"/>
<stop offset="0.21875" stop-color="#F6F6FF"/>
<stop offset="1" stop-color="#C8C8FF"/>
</linearGradient>
<linearGradient id="paint11_linear_197_1779" x1="37.3187" y1="15.3105" x2="35.6922" y2="15.1238" gradientUnits="userSpaceOnUse">
<stop stop-color="white"/>
<stop offset="0.21875" stop-color="#F6F6FF"/>
<stop offset="1" stop-color="#C8C8FF"/>
</linearGradient>
<linearGradient id="paint12_linear_197_1779" x1="35.1128" y1="14.2399" x2="33.5879" y2="14.0641" gradientUnits="userSpaceOnUse">
<stop stop-color="white"/>
<stop offset="0.21875" stop-color="#F6F6FF"/>
<stop offset="1" stop-color="#C8C8FF"/>
</linearGradient>
<linearGradient id="paint13_linear_197_1779" x1="32.7275" y1="13.5701" x2="31.3511" y2="13.4108" gradientUnits="userSpaceOnUse">
<stop stop-color="white"/>
<stop offset="0.21875" stop-color="#F6F6FF"/>
<stop offset="1" stop-color="#C8C8FF"/>
</linearGradient>
<linearGradient id="paint14_linear_197_1779" x1="14.2937" y1="45.1412" x2="13.1224" y2="45.0075" gradientUnits="userSpaceOnUse">
<stop stop-color="white"/>
<stop offset="0.21875" stop-color="#F6F6FF"/>
<stop offset="1" stop-color="#C8C8FF"/>
</linearGradient>
<linearGradient id="paint15_linear_197_1779" x1="14.2937" y1="47.502" x2="13.1224" y2="47.3683" gradientUnits="userSpaceOnUse">
<stop stop-color="white"/>
<stop offset="0.21875" stop-color="#F6F6FF"/>
<stop offset="1" stop-color="#C8C8FF"/>
</linearGradient>
<linearGradient id="paint16_linear_197_1779" x1="15.4753" y1="46.3216" x2="14.3041" y2="46.1879" gradientUnits="userSpaceOnUse">
<stop stop-color="white"/>
<stop offset="0.21875" stop-color="#F6F6FF"/>
<stop offset="1" stop-color="#C8C8FF"/>
</linearGradient>
<linearGradient id="paint17_linear_197_1779" x1="13.114" y1="46.3216" x2="11.9427" y2="46.1879" gradientUnits="userSpaceOnUse">
<stop stop-color="white"/>
<stop offset="0.21875" stop-color="#F6F6FF"/>
<stop offset="1" stop-color="#C8C8FF"/>
</linearGradient>
<linearGradient id="paint18_linear_197_1779" x1="46.7526" y1="13.2723" x2="45.5814" y2="13.1386" gradientUnits="userSpaceOnUse">
<stop stop-color="white"/>
<stop offset="0.21875" stop-color="#F6F6FF"/>
<stop offset="1" stop-color="#C8C8FF"/>
</linearGradient>
<linearGradient id="paint19_linear_197_1779" x1="46.7526" y1="15.6331" x2="45.5814" y2="15.4994" gradientUnits="userSpaceOnUse">
<stop stop-color="white"/>
<stop offset="0.21875" stop-color="#F6F6FF"/>
<stop offset="1" stop-color="#C8C8FF"/>
</linearGradient>
<linearGradient id="paint20_linear_197_1779" x1="47.9343" y1="14.4529" x2="46.763" y2="14.3192" gradientUnits="userSpaceOnUse">
<stop stop-color="white"/>
<stop offset="0.21875" stop-color="#F6F6FF"/>
<stop offset="1" stop-color="#C8C8FF"/>
</linearGradient>
<linearGradient id="paint21_linear_197_1779" x1="45.573" y1="14.4527" x2="44.4017" y2="14.319" gradientUnits="userSpaceOnUse">
<stop stop-color="white"/>
<stop offset="0.21875" stop-color="#F6F6FF"/>
<stop offset="1" stop-color="#C8C8FF"/>
</linearGradient>
<clipPath id="clip0_197_1779">
<rect width="36" height="36" fill="white" transform="translate(12 12)"/>
</clipPath>
</defs>
</svg>
