<svg width="59" height="59" viewBox="0 0 59 59" fill="none" xmlns="http://www.w3.org/2000/svg">
<rect width="59" height="59" rx="12" fill="#0000AF"/>
<g clip-path="url(#clip0_197_2154)">
<path d="M39.5625 38C40.4929 38 41.25 37.2429 41.25 36.3125C41.25 35.3821 40.4929 34.625 39.5625 34.625C38.6321 34.625 37.875 35.3821 37.875 36.3125C37.875 37.2429 38.6321 38 39.5625 38ZM39.5625 35.75C39.8724 35.75 40.125 36.002 40.125 36.3125C40.125 36.623 39.8724 36.875 39.5625 36.875C39.2526 36.875 39 36.623 39 36.3125C39 36.002 39.2526 35.75 39.5625 35.75Z" fill="url(#paint0_linear_197_2154)"/>
<path d="M45.2775 33.9376C45.1071 33.5292 45.1976 33.0652 45.5076 32.7547L46.326 31.9357L43.9387 29.5484L43.1192 30.3674C42.8093 30.6779 42.3446 30.7679 41.9149 30.5879C41.511 30.4214 41.25 30.0311 41.25 29.5934V28.4375H40.0963C40.0451 27.5302 39.8769 26.6532 39.5979 25.8224L46.1072 19.3132C46.965 18.4554 47.4375 17.3152 47.4375 16.1024C47.4375 13.5993 45.4007 11.5625 42.8976 11.5625C41.6848 11.5625 40.5446 12.035 39.6874 12.8923L33.1849 19.3953C32.3439 19.1129 31.4524 18.9487 30.5316 18.8997C29.7553 17.5436 28.2968 16.625 26.625 16.625C26.1969 16.625 25.7841 16.6891 25.3909 16.8011C24.42 14.9757 22.5339 13.8125 20.4375 13.8125C17.3359 13.8125 14.8125 16.3359 14.8125 19.4375C14.8125 19.8684 14.8654 20.2925 14.9616 20.7076C13.575 21.1272 12.5625 22.4159 12.5625 23.9375C12.5625 25.7988 14.0762 27.3125 15.9375 27.3125H20.0179C19.9245 27.8688 19.875 28.4336 19.875 29C19.875 30.2381 20.1039 31.2455 20.4735 32.1061L15.4554 37.1248L12.6632 44.3844C12.5963 44.5576 12.5625 44.7399 12.5625 44.9261C12.5625 45.7597 13.2409 46.4375 14.0739 46.4375C14.2601 46.4375 14.4424 46.4032 14.6162 46.3368L21.8758 43.5446L25.545 39.8748C25.5174 39.9958 25.5 40.1206 25.5 40.25C25.5 40.6837 25.6693 41.0758 25.9388 41.375C25.6688 41.6742 25.5 42.0663 25.5 42.5C25.5 43.2819 26.0372 43.9355 26.76 44.1256C27.2393 45.4981 28.5229 46.4375 30 46.4375C31.4771 46.4375 32.7607 45.4981 33.24 44.1256C33.9628 43.9355 34.5 43.2819 34.5 42.5C34.5 42.4578 34.4904 42.4184 34.4876 42.3774L35.1863 43.076L36.0058 42.257C36.3157 41.9465 36.7787 41.8559 37.2096 42.0354C37.6134 42.2036 37.875 42.5939 37.875 43.0316V44.1875H41.25V43.0316C41.25 42.5939 41.5116 42.203 41.9374 42.0269C42.3458 41.8571 42.8098 41.9465 43.1198 42.257L43.9387 43.076L46.326 40.6887L45.5076 39.8698C45.1976 39.5592 45.1071 39.0952 45.2865 38.6654C45.4536 38.2616 45.8439 38 46.2816 38H47.4375V34.625H46.2816C45.8439 34.625 45.4536 34.3634 45.2775 33.9376ZM36.849 35.5959C37.4627 34.9968 38.0775 34.3848 38.6079 33.6772C38.9139 33.5658 39.2323 33.5 39.5625 33.5C41.1133 33.5 42.375 34.7617 42.375 36.3125C42.375 37.8633 41.1133 39.125 39.5625 39.125C38.0117 39.125 36.75 37.8633 36.75 36.3125C36.75 36.0689 36.7877 35.8293 36.849 35.5959ZM37.5246 22.2714L40.125 19.6704L42.1421 21.6875L39.1378 24.6918C38.7165 23.8076 38.172 22.9942 37.5246 22.2714ZM38.1079 16.0625L39 15.1704L43.8296 20L42.9375 20.8921L38.1079 16.0625ZM42.8976 12.6875C44.7803 12.6875 46.3125 14.2198 46.3125 16.1024C46.3125 17.0143 45.9576 17.8721 45.3124 18.5173L44.625 19.2046L39.7954 14.375L40.4827 13.6876C41.1279 13.043 41.9852 12.6875 42.8976 12.6875ZM37.3125 16.8579L39.3296 18.875L36.7303 21.4743C36.0081 20.8263 35.1953 20.2812 34.311 19.8594L37.3125 16.8579ZM39 29C39 31.9267 37.5262 33.3644 35.9659 34.886C34.8915 35.9339 33.7879 37.0173 33.1455 38.5963C33.0381 38.5743 32.9267 38.5625 32.8125 38.5625H30.5625V35.75C30.5625 34.8196 29.8054 34.0625 28.875 34.0625H27.75C27.4401 34.0625 27.1875 33.8105 27.1875 33.5C27.1875 33.1895 27.4401 32.9375 27.75 32.9375H33.375C34.3054 32.9375 35.0625 32.1804 35.0625 31.25C35.0625 30.3196 34.3054 29.5625 33.375 29.5625H28.875C28.5651 29.5625 28.3125 29.3105 28.3125 29V27.3125H31.125C32.6758 27.3125 33.9375 26.0508 33.9375 24.5C33.9375 22.9492 32.6758 21.6875 31.125 21.6875C31.1092 21.6875 31.0946 21.692 31.0789 21.692C31.1031 21.5041 31.125 21.3162 31.125 21.125C31.125 20.7571 31.0755 20.4011 30.9923 20.0585C35.4765 20.558 39 24.4066 39 29ZM26.625 40.25C26.625 39.9395 26.8776 39.6875 27.1875 39.6875H32.8125C33.1224 39.6875 33.375 39.9395 33.375 40.25C33.375 40.5605 33.1224 40.8125 32.8125 40.8125H27.1875C26.8776 40.8125 26.625 40.5605 26.625 40.25ZM19.5454 40.25L23.6803 36.1151C24.3722 36.8013 25.0146 37.4954 25.4882 38.3409L21.5625 42.2671L19.5454 40.25ZM13.6875 23.9375C13.6875 22.6966 14.6966 21.6875 15.9375 21.6875C17.1784 21.6875 18.1875 22.6966 18.1875 23.9375H19.3125C19.3125 22.1251 17.8753 20.6458 16.0815 20.5698C15.9859 20.2019 15.9375 19.8223 15.9375 19.4375C15.9375 16.9563 17.9563 14.9375 20.4375 14.9375C22.0828 14.9375 23.5678 15.8319 24.3576 17.2443C23.1583 17.948 22.3112 19.1872 22.1531 20.6334C21.171 20.8752 20.4375 21.7567 20.4375 22.8125H21.5625C21.5625 22.1921 22.0671 21.6875 22.6875 21.6875C23.3079 21.6875 23.8125 22.1921 23.8125 22.8125H24.9375C24.9375 21.7803 24.2355 20.918 23.2866 20.6536C23.5172 19.0156 24.924 17.75 26.625 17.75C28.4863 17.75 30 19.2637 30 21.125C30 21.4209 29.9516 21.7106 29.8763 21.9929C28.9538 22.4547 28.3125 23.3997 28.3125 24.5H29.4375C29.4375 23.5696 30.1946 22.8125 31.125 22.8125C32.0554 22.8125 32.8125 23.5696 32.8125 24.5C32.8125 25.4304 32.0554 26.1875 31.125 26.1875H15.9375C14.6966 26.1875 13.6875 25.1784 13.6875 23.9375ZM27.1875 27.3125V29C27.1875 29.9304 27.9446 30.6875 28.875 30.6875H33.375C33.6849 30.6875 33.9375 30.9395 33.9375 31.25C33.9375 31.5605 33.6849 31.8125 33.375 31.8125H27.75C26.8196 31.8125 26.0625 32.5696 26.0625 33.5C26.0625 34.4304 26.8196 35.1875 27.75 35.1875H28.875C29.1849 35.1875 29.4375 35.4395 29.4375 35.75V38.5625H27.1875C27.0733 38.5625 26.9619 38.5743 26.8545 38.5963C26.2121 37.0173 25.1085 35.9339 24.0341 34.886C22.4737 33.3644 21 31.9267 21 29C21 28.4313 21.0681 27.8677 21.1733 27.3125H27.1875ZM22.8771 35.3276L18.75 39.4546L16.7329 37.4375L21.0248 33.1456C21.5529 33.9747 22.2077 34.6666 22.8771 35.3276ZM16.1518 38.4472L20.5528 42.8482L16.8268 44.2814L14.7186 42.1732L16.1518 38.4472ZM14.2129 45.2866C13.9693 45.3811 13.6875 45.1871 13.6875 44.9261C13.6875 44.8783 13.6965 44.8316 13.7128 44.7877L14.2764 43.3218L15.6776 44.723L14.2129 45.2866ZM30 45.3125C29.1692 45.3125 28.4284 44.8704 28.0177 44.1875H31.9822C31.5716 44.8704 30.8308 45.3125 30 45.3125ZM32.8125 43.0625H27.1875C26.8776 43.0625 26.625 42.8105 26.625 42.5C26.625 42.1895 26.8776 41.9375 27.1875 41.9375H32.8125C33.1224 41.9375 33.375 42.1895 33.375 42.5C33.375 42.8105 33.1224 43.0625 32.8125 43.0625ZM46.3125 36.875H46.2816C45.3866 36.875 44.5879 37.4094 44.2391 38.2542C43.8926 39.0851 44.0782 40.0312 44.7116 40.6651L44.7352 40.6887L43.9387 41.4852L43.9151 41.4616C43.2806 40.8271 42.3334 40.6409 41.4857 40.9964C40.6594 41.3384 40.125 42.1366 40.125 43.0316V43.0625H39V43.0316C39 42.1366 38.4656 41.3379 37.6208 40.9886C36.7888 40.6415 35.8427 40.8277 35.2093 41.4616L35.1857 41.4852L34.4235 40.7231C34.4685 40.5718 34.5 40.4154 34.5 40.25C34.5 39.8506 34.3549 39.4884 34.122 39.1987C34.4719 38.2542 35.0203 37.4988 35.6588 36.8013C35.9006 38.7419 37.5572 40.25 39.5625 40.25C41.7337 40.25 43.5 38.4832 43.5 36.3125C43.5 34.1418 41.7337 32.375 39.5625 32.375C39.5074 32.375 39.4539 32.3806 39.3994 32.3829C39.7802 31.5926 40.0418 30.6763 40.1076 29.5625H40.125V29.5934C40.125 30.4884 40.6594 31.2877 41.5037 31.6359C42.3339 31.9835 43.2812 31.7979 43.9151 31.1634L43.9387 31.1398L44.7352 31.9363L44.7116 31.9599C44.0782 32.5938 43.8926 33.5405 44.2464 34.3888C44.5879 35.2156 45.3866 35.75 46.2816 35.75H46.3125V36.875Z" fill="url(#paint1_linear_197_2154)"/>
</g>
<defs>
<linearGradient id="paint0_linear_197_2154" x1="41.0603" y1="37.4489" x2="37.7112" y2="37.0666" gradientUnits="userSpaceOnUse">
<stop stop-color="white"/>
<stop offset="0.21875" stop-color="#F6F6FF"/>
<stop offset="1" stop-color="#C8C8FF"/>
</linearGradient>
<linearGradient id="paint1_linear_197_2154" x1="45.4769" y1="40.743" x2="10.8703" y2="36.7926" gradientUnits="userSpaceOnUse">
<stop stop-color="white"/>
<stop offset="0.21875" stop-color="#F6F6FF"/>
<stop offset="1" stop-color="#C8C8FF"/>
</linearGradient>
<clipPath id="clip0_197_2154">
<rect width="36" height="36" fill="white" transform="translate(12 11)"/>
</clipPath>
</defs>
</svg>
