<svg width="59" height="59" viewBox="0 0 59 59" fill="none" xmlns="http://www.w3.org/2000/svg">
<rect width="59" height="59" rx="12" fill="#0000AF"/>
<path fill-rule="evenodd" clip-rule="evenodd" d="M12.8593 13.9443L10.9883 15.7345L13.9478 18.325C14.1803 18.5285 14.315 18.8376 14.2855 19.1683C14.2171 19.9358 13.714 25.7183 13.719 29.5045C13.724 33.1958 14.2171 38.8304 14.2854 39.5917C14.3156 39.9292 14.1748 40.2413 13.9379 40.4434L10.9062 43.0292L12.4679 45.0009L15.8845 41.55C16.0795 41.3531 16.363 41.2303 16.678 41.2616C17.5095 41.3445 24.9953 42.0758 29.8842 42.0831C34.868 42.0906 42.4871 41.3536 43.4033 41.263C43.7475 41.229 44.0746 41.3786 44.279 41.6433L46.8795 45.0107L49.0407 42.9317L46.296 40.4235C46.0755 40.2221 45.9486 39.9244 45.9731 39.6065C46.0302 38.863 46.455 33.2076 46.4592 29.5047C46.4636 25.7068 46.0302 19.9033 45.9729 19.1536C45.9492 18.843 46.07 18.5482 46.2864 18.3452L49.0143 15.7868L46.8886 13.9466L44.2641 17.1411C44.0587 17.3912 43.7381 17.5339 43.3981 17.4969C42.4946 17.3986 34.8705 16.5867 29.8843 16.5949C25.0082 16.6029 17.5488 17.4037 16.6911 17.4976C16.3666 17.5331 16.0666 17.4046 15.8645 17.1866L12.8593 13.9443ZM12.2067 12.2739C12.6052 11.8927 13.2347 11.9117 13.6098 12.3164L16.844 15.8057C18.5588 15.6232 25.3052 14.9365 29.8816 14.929C34.5524 14.9213 41.4305 15.6137 43.2205 15.8027L46.0474 12.3617C46.4004 11.9321 47.0334 11.8778 47.453 12.2411L50.6491 15.008C51.0979 15.3966 51.1116 16.0932 50.6785 16.4994L47.6416 19.3476C47.7499 20.8121 48.1126 25.984 48.1086 29.5066C48.1047 32.9325 47.7502 37.9559 47.6423 39.4073L50.6743 42.178C51.1011 42.568 51.1096 43.2421 50.6929 43.643L47.4897 46.7242C47.066 47.1318 46.3867 47.0811 46.0269 46.6152L43.2012 42.9563C41.3939 43.1296 34.5369 43.756 29.8817 43.749C25.2921 43.7422 18.5104 43.1131 16.8306 42.9504L13.113 46.7053C12.6959 47.1265 12.0089 47.0881 11.6404 46.6229L9.21688 43.5631C8.88184 43.1401 8.94139 42.5245 9.35117 42.175L12.6121 39.3938C12.4837 37.9116 12.0742 32.9208 12.0697 29.5067C12.065 25.9961 12.484 20.8572 12.6129 19.361L9.35795 16.5118C8.9159 16.1249 8.90082 15.4372 9.32547 15.0309L12.2067 12.2739Z" fill="url(#paint0_linear_197_2169)"/>
<path fill-rule="evenodd" clip-rule="evenodd" d="M27.1988 23.6722C27.8471 23.7066 28.4798 23.9041 28.934 24.2157C29.3129 24.4756 29.6964 24.9289 29.9843 25.3011C30.0696 25.4115 30.1524 25.5225 30.2307 25.6304C30.318 25.5213 30.4101 25.4085 30.5041 25.2959C30.8146 24.9247 31.2035 24.4883 31.5342 24.2377C32.4703 23.5281 33.9807 23.4968 35.1753 24.1822C35.6683 24.465 36.0757 24.8006 36.4068 25.2435C36.735 25.6827 36.9571 26.1858 37.1314 26.7567C37.4591 27.8296 37.3292 28.6183 37.1886 29.4717C37.1789 29.5306 37.1692 29.5898 37.1596 29.6493C36.9928 30.6794 36.4783 31.5628 35.859 32.2903C35.2384 33.0195 34.4773 33.6339 33.7428 34.1306C32.2748 35.1234 30.8124 35.7123 30.5121 35.8287C30.3002 35.9109 30.0744 35.9086 29.8653 35.8245C29.5681 35.7049 28.133 35.106 26.6926 34.1088C25.972 33.6099 25.2254 32.9947 24.6164 32.2683C24.0089 31.5437 23.504 30.6671 23.3391 29.6495C23.3331 29.6123 23.3271 29.5754 23.3211 29.5387C23.1754 28.6448 23.0483 27.8653 23.363 26.771C23.516 26.2386 23.7027 25.7511 23.9881 25.3137C24.2792 24.8676 24.6466 24.5136 25.1151 24.2065C25.7871 23.7659 26.5413 23.6373 27.1988 23.6722ZM27.1206 25.3888C26.6988 25.3664 26.279 25.4542 25.9415 25.6755C25.6306 25.8793 25.436 26.0791 25.2896 26.3035C25.1376 26.5365 25.0113 26.8359 24.8835 27.2805C24.6839 27.9746 24.7511 28.3895 24.9052 29.3403L24.9073 29.3533C25.0035 29.9468 25.3128 30.5377 25.7968 31.1151C26.2794 31.6907 26.9019 32.212 27.552 32.6621C28.627 33.4063 29.7106 33.9103 30.1982 34.1207C30.6931 33.9145 31.7998 33.4166 32.8976 32.6741C33.5606 32.2258 34.1952 31.7049 34.6867 31.1274C35.1797 30.5483 35.4941 29.9537 35.5913 29.3534C35.5969 29.319 35.6023 29.2853 35.6077 29.2523C35.7546 28.3471 35.8193 27.9491 35.6194 27.2948C35.4835 26.8498 35.3388 26.5515 35.1678 26.3228C34.9996 26.0978 34.7753 25.899 34.4282 25.6998C33.6603 25.2592 32.8064 25.3734 32.449 25.6442C32.2832 25.77 32.0024 26.069 31.6859 26.4476C31.386 26.8063 31.1039 27.1751 30.9454 27.3864C30.5444 27.921 29.7858 27.889 29.4208 27.3336C29.2745 27.1108 29.0296 26.7484 28.7622 26.4026C28.4763 26.0329 28.2297 25.7689 28.0801 25.6663C27.9034 25.545 27.5515 25.4116 27.1206 25.3888Z" fill="url(#paint1_linear_197_2169)"/>
<defs>
<linearGradient id="paint0_linear_197_2169" x1="48.6389" y1="41.2851" x2="7.19662" y2="35.6083" gradientUnits="userSpaceOnUse">
<stop stop-color="white"/>
<stop offset="0.21875" stop-color="#F6F6FF"/>
<stop offset="1" stop-color="#C8C8FF"/>
</linearGradient>
<linearGradient id="paint1_linear_197_2169" x1="36.5401" y1="33.8933" x2="22.5424" y2="32.041" gradientUnits="userSpaceOnUse">
<stop stop-color="white"/>
<stop offset="0.21875" stop-color="#F6F6FF"/>
<stop offset="1" stop-color="#C8C8FF"/>
</linearGradient>
</defs>
</svg>
