<svg width="59" height="59" viewBox="0 0 59 59" fill="none" xmlns="http://www.w3.org/2000/svg">
<rect width="59" height="59" rx="12" fill="#0000AF"/>
<path fill-rule="evenodd" clip-rule="evenodd" d="M15.0586 23.8612C15.0586 23.6953 15.1942 23.5608 15.3615 23.5608H24.4472C24.6145 23.5608 24.7501 23.6953 24.7501 23.8612C24.7501 24.027 24.6145 24.1615 24.4472 24.1615H15.3615C15.1942 24.1615 15.0586 24.027 15.0586 23.8612Z" fill="url(#paint0_linear_197_1930)"/>
<path fill-rule="evenodd" clip-rule="evenodd" d="M15.0586 38.2786C15.0586 38.1128 15.1942 37.9783 15.3615 37.9783H24.4472C24.6145 37.9783 24.7501 38.1128 24.7501 38.2786C24.7501 38.4445 24.6145 38.579 24.4472 38.579H15.3615C15.1942 38.579 15.0586 38.4445 15.0586 38.2786Z" fill="url(#paint1_linear_197_1930)"/>
<path fill-rule="evenodd" clip-rule="evenodd" d="M12.3281 34.6749C12.3281 34.509 12.4637 34.3745 12.631 34.3745H22.6253C22.7926 34.3745 22.9282 34.509 22.9282 34.6749C22.9282 34.8408 22.7926 34.9752 22.6253 34.9752H12.631C12.4637 34.9752 12.3281 34.8408 12.3281 34.6749Z" fill="url(#paint2_linear_197_1930)"/>
<path fill-rule="evenodd" clip-rule="evenodd" d="M9 31.0701C9 30.9043 9.13559 30.7698 9.30286 30.7698H19.9029C20.0702 30.7698 20.2058 30.9043 20.2058 31.0701C20.2058 31.236 20.0702 31.3705 19.9029 31.3705H9.30286C9.13559 31.3705 9 31.236 9 31.0701Z" fill="url(#paint3_linear_197_1930)"/>
<path fill-rule="evenodd" clip-rule="evenodd" d="M12.3281 27.4659C12.3281 27.3 12.4637 27.1655 12.631 27.1655H22.6253C22.7926 27.1655 22.9282 27.3 22.9282 27.4659C22.9282 27.6318 22.7926 27.7663 22.6253 27.7663H12.631C12.4637 27.7663 12.3281 27.6318 12.3281 27.4659Z" fill="url(#paint4_linear_197_1930)"/>
<path fill-rule="evenodd" clip-rule="evenodd" d="M39.2758 27.5929L39.2758 31.4977C39.2758 31.7465 39.0724 31.9482 38.8215 31.9482C38.5706 31.9482 38.3672 31.7465 38.3672 31.4977L38.3672 27.5929C38.3672 27.3441 38.5706 27.1424 38.8215 27.1424C39.0724 27.1424 39.2758 27.3441 39.2758 27.5929Z" fill="url(#paint5_linear_197_1930)"/>
<path fill-rule="evenodd" clip-rule="evenodd" d="M38.6533 31.6294C38.4759 31.4534 38.4759 31.1682 38.6533 30.9922L40.4337 29.2264C40.6111 29.0505 40.8987 29.0505 41.0761 29.2264C41.2535 29.4024 41.2535 29.6877 41.0761 29.8636L39.2957 31.6294C39.1183 31.8053 38.8307 31.8053 38.6533 31.6294Z" fill="url(#paint6_linear_197_1930)"/>
<path fill-rule="evenodd" clip-rule="evenodd" d="M36.098 15.9011V18.1539C36.098 18.4027 35.8946 18.6044 35.6437 18.6044C35.3928 18.6044 35.1895 18.4027 35.1895 18.1539V15.7509C35.1895 15.3362 35.5284 15 35.9466 15H41.8523C42.2705 15 42.6095 15.3362 42.6095 15.7509V18.1539C42.6095 18.4027 42.4061 18.6044 42.1552 18.6044C41.9043 18.6044 41.7009 18.4027 41.7009 18.1539V15.9011H36.098Z" fill="url(#paint7_linear_197_1930)"/>
<path fill-rule="evenodd" clip-rule="evenodd" d="M38.8215 23.26C38.5706 23.26 38.3672 23.0583 38.3672 22.8095V21.0072C38.3672 20.7584 38.5706 20.5567 38.8215 20.5567C39.0724 20.5567 39.2758 20.7584 39.2758 21.0072V22.8095C39.2758 23.0583 39.0724 23.26 38.8215 23.26Z" fill="url(#paint8_linear_197_1930)"/>
<path fill-rule="evenodd" clip-rule="evenodd" d="M34.2543 25.3735C34.0621 25.5334 33.7755 25.5086 33.6142 25.3179L32.4462 23.9374C32.2849 23.7468 32.31 23.4626 32.5022 23.3026C32.6944 23.1427 32.9809 23.1675 33.1422 23.3582L34.3102 24.7387C34.4715 24.9293 34.4465 25.2135 34.2543 25.3735Z" fill="url(#paint9_linear_197_1930)"/>
<path fill-rule="evenodd" clip-rule="evenodd" d="M33.7152 34.9857C33.523 34.8257 33.2364 34.8506 33.0752 35.0412L31.9071 36.4218C31.7459 36.6124 31.7709 36.8966 31.9631 37.0565C32.1553 37.2165 32.4419 37.1916 32.6031 37.001L33.7712 35.6204C33.9325 35.4298 33.9074 35.1456 33.7152 34.9857Z" fill="url(#paint10_linear_197_1930)"/>
<path fill-rule="evenodd" clip-rule="evenodd" d="M45.8265 23.2711C45.6343 23.1111 45.3478 23.136 45.1865 23.3266L44.0185 24.7072C43.8572 24.8978 43.8823 25.182 44.0745 25.3419C44.2667 25.5019 44.5532 25.477 44.7145 25.2864L45.8825 23.9058C46.0438 23.7152 46.0187 23.431 45.8265 23.2711Z" fill="url(#paint11_linear_197_1930)"/>
<path fill-rule="evenodd" clip-rule="evenodd" d="M45.4632 37.3889C45.271 37.5488 44.9845 37.5239 44.8232 37.3333L43.6552 35.9528C43.4939 35.7621 43.519 35.4779 43.7112 35.318C43.9034 35.1581 44.1899 35.1829 44.3512 35.3735L45.5192 36.7541C45.6805 36.9447 45.6554 37.2289 45.4632 37.3889Z" fill="url(#paint12_linear_197_1930)"/>
<path fill-rule="evenodd" clip-rule="evenodd" d="M38.8215 40.0818C38.5706 40.0818 38.3672 39.8801 38.3672 39.6312V37.829C38.3672 37.5802 38.5706 37.3785 38.8215 37.3785C39.0724 37.3785 39.2758 37.5802 39.2758 37.829V39.6312C39.2758 39.8801 39.0724 40.0818 38.8215 40.0818Z" fill="url(#paint13_linear_197_1930)"/>
<path fill-rule="evenodd" clip-rule="evenodd" d="M46.2402 29.7184C46.2402 29.4695 46.4436 29.2678 46.6945 29.2678H48.5117C48.7626 29.2678 48.966 29.4695 48.966 29.7184C48.966 29.9672 48.7626 30.1689 48.5117 30.1689H46.6945C46.4436 30.1689 46.2402 29.9672 46.2402 29.7184Z" fill="url(#paint14_linear_197_1930)"/>
<path fill-rule="evenodd" clip-rule="evenodd" d="M29.584 29.7184C29.584 29.4695 29.7874 29.2678 30.0383 29.2678H31.8554C32.1063 29.2678 32.3097 29.4695 32.3097 29.7184C32.3097 29.9672 32.1063 30.1689 31.8554 30.1689H30.0383C29.7874 30.1689 29.584 29.9672 29.584 29.7184Z" fill="url(#paint15_linear_197_1930)"/>
<path fill-rule="evenodd" clip-rule="evenodd" d="M39.1273 42.1832C45.7343 42.1832 51.0902 36.8712 51.0902 30.3186C51.0902 23.766 45.7343 18.4541 39.1273 18.4541C32.5204 18.4541 27.1644 23.766 27.1644 30.3186C27.1644 36.8712 32.5204 42.1832 39.1273 42.1832ZM39.1273 43.0843C46.2361 43.0843 51.9988 37.3689 51.9988 30.3186C51.9988 23.2684 46.2361 17.553 39.1273 17.553C32.0186 17.553 26.2559 23.2684 26.2559 30.3186C26.2559 37.3689 32.0186 43.0843 39.1273 43.0843Z" fill="url(#paint16_linear_197_1930)"/>
<path fill-rule="evenodd" clip-rule="evenodd" d="M39.1281 39.18C44.0623 39.18 48.0624 35.2128 48.0624 30.3191C48.0624 25.4254 44.0623 21.4582 39.1281 21.4582C34.1938 21.4582 30.1937 25.4254 30.1937 30.3191C30.1937 35.2128 34.1938 39.18 39.1281 39.18ZM39.1281 40.0811C44.5641 40.0811 48.971 35.7105 48.971 30.3191C48.971 24.9277 44.5641 20.5571 39.1281 20.5571C33.692 20.5571 29.2852 24.9277 29.2852 30.3191C29.2852 35.7105 33.692 40.0811 39.1281 40.0811Z" fill="url(#paint17_linear_197_1930)"/>
<defs>
<linearGradient id="paint0_linear_197_1930" x1="24.2052" y1="24.0634" x2="21.9867" y2="19.9779" gradientUnits="userSpaceOnUse">
<stop stop-color="white"/>
<stop offset="0.21875" stop-color="#F6F6FF"/>
<stop offset="1" stop-color="#C8C8FF"/>
</linearGradient>
<linearGradient id="paint1_linear_197_1930" x1="24.2052" y1="38.4809" x2="21.9867" y2="34.3954" gradientUnits="userSpaceOnUse">
<stop stop-color="white"/>
<stop offset="0.21875" stop-color="#F6F6FF"/>
<stop offset="1" stop-color="#C8C8FF"/>
</linearGradient>
<linearGradient id="paint2_linear_197_1930" x1="22.3323" y1="34.8772" x2="20.2252" y2="30.633" gradientUnits="userSpaceOnUse">
<stop stop-color="white"/>
<stop offset="0.21875" stop-color="#F6F6FF"/>
<stop offset="1" stop-color="#C8C8FF"/>
</linearGradient>
<linearGradient id="paint3_linear_197_1930" x1="19.5758" y1="31.2724" x2="17.5403" y2="26.9382" gradientUnits="userSpaceOnUse">
<stop stop-color="white"/>
<stop offset="0.21875" stop-color="#F6F6FF"/>
<stop offset="1" stop-color="#C8C8FF"/>
</linearGradient>
<linearGradient id="paint4_linear_197_1930" x1="22.3323" y1="27.6682" x2="20.2252" y2="23.4241" gradientUnits="userSpaceOnUse">
<stop stop-color="white"/>
<stop offset="0.21875" stop-color="#F6F6FF"/>
<stop offset="1" stop-color="#C8C8FF"/>
</linearGradient>
<linearGradient id="paint5_linear_197_1930" x1="39.1274" y1="27.4125" x2="36.9898" y2="30.9529" gradientUnits="userSpaceOnUse">
<stop stop-color="white"/>
<stop offset="0.21875" stop-color="#F6F6FF"/>
<stop offset="1" stop-color="#C8C8FF"/>
</linearGradient>
<linearGradient id="paint6_linear_197_1930" x1="41.1562" y1="29.5761" x2="38.2236" y2="30.7533" gradientUnits="userSpaceOnUse">
<stop stop-color="white"/>
<stop offset="0.21875" stop-color="#F6F6FF"/>
<stop offset="1" stop-color="#C8C8FF"/>
</linearGradient>
<linearGradient id="paint7_linear_197_1930" x1="42.1924" y1="18.0159" x2="35.1238" y2="16.3548" gradientUnits="userSpaceOnUse">
<stop stop-color="white"/>
<stop offset="0.21875" stop-color="#F6F6FF"/>
<stop offset="1" stop-color="#C8C8FF"/>
</linearGradient>
<linearGradient id="paint8_linear_197_1930" x1="39.1274" y1="20.7087" x2="38.2999" y2="23.1451" gradientUnits="userSpaceOnUse">
<stop stop-color="white"/>
<stop offset="0.21875" stop-color="#F6F6FF"/>
<stop offset="1" stop-color="#C8C8FF"/>
</linearGradient>
<linearGradient id="paint9_linear_197_1930" x1="32.835" y1="23.224" x2="33.7547" y2="25.6277" gradientUnits="userSpaceOnUse">
<stop stop-color="white"/>
<stop offset="0.21875" stop-color="#F6F6FF"/>
<stop offset="1" stop-color="#C8C8FF"/>
</linearGradient>
<linearGradient id="paint10_linear_197_1930" x1="32.296" y1="37.1351" x2="33.2157" y2="34.7314" gradientUnits="userSpaceOnUse">
<stop stop-color="white"/>
<stop offset="0.21875" stop-color="#F6F6FF"/>
<stop offset="1" stop-color="#C8C8FF"/>
</linearGradient>
<linearGradient id="paint11_linear_197_1930" x1="44.4073" y1="25.4205" x2="45.327" y2="23.0168" gradientUnits="userSpaceOnUse">
<stop stop-color="white"/>
<stop offset="0.21875" stop-color="#F6F6FF"/>
<stop offset="1" stop-color="#C8C8FF"/>
</linearGradient>
<linearGradient id="paint12_linear_197_1930" x1="44.044" y1="35.2394" x2="44.9637" y2="37.6431" gradientUnits="userSpaceOnUse">
<stop stop-color="white"/>
<stop offset="0.21875" stop-color="#F6F6FF"/>
<stop offset="1" stop-color="#C8C8FF"/>
</linearGradient>
<linearGradient id="paint13_linear_197_1930" x1="39.1274" y1="37.5304" x2="38.2999" y2="39.9669" gradientUnits="userSpaceOnUse">
<stop stop-color="white"/>
<stop offset="0.21875" stop-color="#F6F6FF"/>
<stop offset="1" stop-color="#C8C8FF"/>
</linearGradient>
<linearGradient id="paint14_linear_197_1930" x1="48.8127" y1="30.0218" x2="46.3646" y2="29.1765" gradientUnits="userSpaceOnUse">
<stop stop-color="white"/>
<stop offset="0.21875" stop-color="#F6F6FF"/>
<stop offset="1" stop-color="#C8C8FF"/>
</linearGradient>
<linearGradient id="paint15_linear_197_1930" x1="32.1565" y1="30.0218" x2="29.7084" y2="29.1765" gradientUnits="userSpaceOnUse">
<stop stop-color="white"/>
<stop offset="0.21875" stop-color="#F6F6FF"/>
<stop offset="1" stop-color="#C8C8FF"/>
</linearGradient>
<linearGradient id="paint16_linear_197_1930" x1="50.5516" y1="38.9154" x2="25.0122" y2="35.9759" gradientUnits="userSpaceOnUse">
<stop stop-color="white"/>
<stop offset="0.21875" stop-color="#F6F6FF"/>
<stop offset="1" stop-color="#C8C8FF"/>
</linearGradient>
<linearGradient id="paint17_linear_197_1930" x1="47.8643" y1="36.8931" x2="28.3341" y2="34.6453" gradientUnits="userSpaceOnUse">
<stop stop-color="white"/>
<stop offset="0.21875" stop-color="#F6F6FF"/>
<stop offset="1" stop-color="#C8C8FF"/>
</linearGradient>
</defs>
</svg>
