<svg width="38" height="37" viewBox="0 0 38 37" fill="none" xmlns="http://www.w3.org/2000/svg">
<path fill-rule="evenodd" clip-rule="evenodd" d="M19.3906 0C9.17336 0 0.890625 8.28273 0.890625 18.5C0.890625 28.7173 9.17336 37 19.3906 37C29.6079 37 37.8906 28.7173 37.8906 18.5C37.8906 8.28273 29.6079 0 19.3906 0ZM15.3226 8.69288C16.3751 8.64499 16.7114 8.63327 19.391 8.63327H19.3879C22.0684 8.63327 22.4035 8.64499 23.4559 8.69288C24.5063 8.74098 25.2237 8.90728 25.8527 9.15128C26.5023 9.40309 27.0511 9.7402 27.6 10.289C28.1488 10.8375 28.4859 11.388 28.7388 12.0369C28.9813 12.6643 29.1478 13.3812 29.1972 14.4316C29.2444 15.4841 29.2568 15.8204 29.2568 18.5C29.2568 21.1797 29.2444 21.5152 29.1972 22.5676C29.1478 23.6176 28.9813 24.3348 28.7388 24.9624C28.4859 25.6111 28.1488 26.1616 27.6 26.71C27.0518 27.2589 26.5021 27.5968 25.8534 27.8488C25.2256 28.0928 24.5078 28.2591 23.4574 28.3072C22.4049 28.3551 22.0697 28.3668 19.3898 28.3668C16.7104 28.3668 16.3743 28.3551 15.3218 28.3072C14.2716 28.2591 13.5544 28.0928 12.9267 27.8488C12.2781 27.5968 11.7276 27.2589 11.1794 26.71C10.6308 26.1616 10.2937 25.6111 10.0414 24.9622C9.79765 24.3348 9.63136 23.6178 9.58305 22.5674C9.53536 21.515 9.52344 21.1797 9.52344 18.5C9.52344 15.8204 9.53577 15.4839 9.58284 14.4314C9.63012 13.3815 9.79662 12.6643 10.0412 12.0367C10.2941 11.388 10.6312 10.8375 11.18 10.289C11.7285 9.74041 12.2789 9.40329 12.9279 9.15128C13.5552 8.90728 14.2722 8.74098 15.3226 8.69288Z" fill="#0000AF"/>
<path fill-rule="evenodd" clip-rule="evenodd" d="M18.5078 10.4114C18.6796 10.4111 18.8645 10.4112 19.064 10.4113L19.3929 10.4114C22.0273 10.4114 22.3396 10.4209 23.3799 10.4681C24.3419 10.5121 24.864 10.6729 25.2118 10.8079C25.6723 10.9868 26.0005 11.2005 26.3457 11.5459C26.691 11.8912 26.9048 12.2201 27.084 12.6806C27.2191 13.0279 27.38 13.5501 27.4238 14.5121C27.4711 15.5522 27.4814 15.8646 27.4814 18.4978C27.4814 21.131 27.4711 21.4435 27.4238 22.4836C27.3798 23.4456 27.2191 23.9677 27.084 24.3151C26.9052 24.7756 26.691 25.1034 26.3457 25.4486C26.0003 25.7939 25.6725 26.0077 25.2118 26.1865C24.8644 26.3222 24.3419 26.4825 23.3799 26.5265C22.3398 26.5738 22.0273 26.5841 19.3929 26.5841C16.7583 26.5841 16.446 26.5738 15.4059 26.5265C14.4439 26.4821 13.9218 26.3214 13.5738 26.1863C13.1133 26.0075 12.7844 25.7937 12.4391 25.4484C12.0937 25.103 11.88 24.775 11.7007 24.3143C11.5657 23.9669 11.4047 23.4448 11.3609 22.4828C11.3137 21.4427 11.3042 21.1302 11.3042 18.4954C11.3042 15.8605 11.3137 15.5497 11.3609 14.5096C11.4049 13.5476 11.5657 13.0255 11.7007 12.6777C11.8796 12.2172 12.0937 11.8883 12.4391 11.543C12.7844 11.1977 13.1133 10.9839 13.5738 10.8046C13.9216 10.669 14.4439 10.5086 15.4059 10.4644C16.3161 10.4233 16.6688 10.411 18.5078 10.4089V10.4114ZM24.659 12.0497C24.0053 12.0497 23.475 12.5794 23.475 13.2333C23.475 13.8869 24.0053 14.4173 24.659 14.4173C25.3127 14.4173 25.843 13.8869 25.843 13.2333C25.843 12.5796 25.3127 12.0493 24.659 12.0493V12.0497ZM14.3257 18.5002C14.3257 15.702 16.5943 13.4333 19.3925 13.4332C22.1907 13.4332 24.4589 15.7019 24.4589 18.5002C24.4589 21.2984 22.1909 23.5662 19.3927 23.5662C16.5944 23.5662 14.3257 21.2984 14.3257 18.5002Z" fill="#0000AF"/>
<path d="M19.392 15.2112C21.2083 15.2112 22.6809 16.6836 22.6809 18.5001C22.6809 20.3164 21.2083 21.789 19.392 21.789C17.5754 21.789 16.103 20.3164 16.103 18.5001C16.103 16.6836 17.5754 15.2112 19.392 15.2112Z" fill="#0000AF"/>
</svg>
