<svg width="39" height="39" viewBox="0 0 39 39" fill="none" xmlns="http://www.w3.org/2000/svg">
<path d="M28.6406 0.457031H10.3594C9.83431 0.457636 9.33092 0.666486 8.95964 1.03777C8.58836 1.40904 8.37951 1.91243 8.37891 2.4375V36.5625C8.37951 37.0876 8.58836 37.591 8.95964 37.9622C9.33092 38.3335 9.83431 38.5424 10.3594 38.543H28.6406C29.1657 38.5424 29.6691 38.3335 30.0404 37.9622C30.4116 37.591 30.6205 37.0876 30.6211 36.5625V2.4375C30.6205 1.91243 30.4116 1.40904 30.0404 1.03777C29.6691 0.666486 29.1657 0.457636 28.6406 0.457031ZM9.90234 2.4375C9.90246 2.31632 9.95065 2.20015 10.0363 2.11446C10.122 2.02878 10.2382 1.98059 10.3594 1.98047H28.6406C28.7618 1.98059 28.878 2.02878 28.9637 2.11446C29.0493 2.20015 29.0975 2.31632 29.0977 2.4375V4.71938H9.90234V2.4375ZM29.0977 6.24282V30.9291H9.90234V6.24282H29.0977ZM29.0977 36.5625C29.0975 36.6837 29.0493 36.7999 28.9637 36.8855C28.878 36.9712 28.7618 37.0194 28.6406 37.0195H10.3594C10.2382 37.0194 10.122 36.9712 10.0363 36.8855C9.95065 36.7999 9.90246 36.6837 9.90234 36.5625V32.4525H29.0977V36.5625Z" fill="#0000AF"/>
<path d="M17.6023 35.4979H21.4837C21.6857 35.4979 21.8795 35.4177 22.0223 35.2748C22.1652 35.132 22.2454 34.9382 22.2454 34.7362C22.2454 34.5342 22.1652 34.3404 22.0223 34.1976C21.8795 34.0547 21.6857 33.9745 21.4837 33.9745H17.6023C17.4003 33.9745 17.2065 34.0547 17.0637 34.1976C16.9208 34.3404 16.8406 34.5342 16.8406 34.7362C16.8406 34.9382 16.9208 35.132 17.0637 35.2748C17.2065 35.4177 17.4003 35.4979 17.6023 35.4979Z" fill="#0000AF"/>
<path d="M15.2344 14.5538C15.2344 14.2701 15.4644 14.04 15.7482 14.04H23.328C23.6118 14.04 23.8418 14.2701 23.8418 14.5538C23.8418 14.8376 23.6118 15.0676 23.328 15.0676H15.7482C15.4644 15.0676 15.2344 14.8376 15.2344 14.5538ZM18.6019 17.2252C18.6019 17.1366 18.5301 17.0648 18.4415 17.0648H15.7482C15.4644 17.0648 15.2344 16.8348 15.2344 16.551C15.2344 16.2673 15.4644 16.0373 15.7482 16.0373H23.328C23.6118 16.0373 23.8418 16.2673 23.8418 16.551C23.8418 16.8348 23.6118 17.0648 23.328 17.0648H20.6347C20.5461 17.0648 20.4743 17.1366 20.4743 17.2252V23.2347C20.4743 23.7517 20.0551 24.1709 19.5381 24.1709C19.021 24.1709 18.6019 23.7517 18.6019 23.2347V17.2252Z" fill="#0000AF"/>
</svg>
