<svg width="19" height="19" viewBox="0 0 19 19" fill="none" xmlns="http://www.w3.org/2000/svg">
<path fill-rule="evenodd" clip-rule="evenodd" d="M9.42857 0C9.75473 0 10.0675 0.129573 10.2982 0.360204C10.5288 0.590835 10.6584 0.903651 10.6584 1.22981V8.19876H17.6273C17.9535 8.19876 18.2663 8.32833 18.4969 8.55896C18.7276 8.78959 18.8571 9.10241 18.8571 9.42857C18.8571 9.75473 18.7276 10.0675 18.4969 10.2982C18.2663 10.5288 17.9535 10.6584 17.6273 10.6584H10.6584V17.6273C10.6584 17.9535 10.5288 18.2663 10.2982 18.4969C10.0675 18.7276 9.75473 18.8571 9.42857 18.8571C9.10241 18.8571 8.78959 18.7276 8.55896 18.4969C8.32833 18.2663 8.19876 17.9535 8.19876 17.6273V10.6584H1.22981C0.903651 10.6584 0.590835 10.5288 0.360204 10.2982C0.129573 10.0675 0 9.75473 0 9.42857C0 9.10241 0.129573 8.78959 0.360204 8.55896C0.590835 8.32833 0.903651 8.19876 1.22981 8.19876H8.19876V1.22981C8.19876 0.903651 8.32833 0.590835 8.55896 0.360204C8.78959 0.129573 9.10241 0 9.42857 0Z" fill="#3A3ACF"/>
</svg>
