<svg width="22" height="22" viewBox="0 0 22 22" fill="none" xmlns="http://www.w3.org/2000/svg">
<g clip-path="url(#clip0_78_2094)">
<path d="M21.5068 17.3865L18.1092 13.9886C17.4325 13.3145 16.3118 13.335 15.6115 14.0356L13.8998 15.7469C13.7917 15.6873 13.6797 15.625 13.562 15.559C12.4811 14.9601 11.0017 14.1392 9.44491 12.5812C7.88351 11.02 7.06185 9.53833 6.46109 8.45671C6.3977 8.34212 6.33696 8.23164 6.27698 8.12672L7.42578 6.97963L7.99058 6.41414C8.69196 5.71257 8.7113 4.59221 8.03615 3.91623L4.63859 0.517923C3.96344 -0.1571 2.84226 -0.136622 2.14088 0.564947L1.18333 1.52799L1.2095 1.55397C0.888423 1.96366 0.62012 2.43618 0.420458 2.94573C0.236406 3.43076 0.121817 3.89361 0.0694204 4.3574C-0.379204 8.0766 1.32036 11.4757 5.93277 16.0881C12.3085 22.4634 17.4465 21.9818 17.6682 21.9583C18.1509 21.9006 18.6136 21.7853 19.0838 21.6027C19.5889 21.4053 20.0611 21.1374 20.4705 20.817L20.4915 20.8356L21.4615 19.8857C22.1614 19.1843 22.1816 18.0635 21.5068 17.3865Z" fill="#0000AF"/>
</g>
<defs>
<clipPath id="clip0_78_2094">
<rect width="22" height="22" fill="white"/>
</clipPath>
</defs>
</svg>
