<svg width="37" height="37" viewBox="0 0 37 37" fill="none" xmlns="http://www.w3.org/2000/svg">
<path fill-rule="evenodd" clip-rule="evenodd" d="M0 18.5C0 28.7173 8.28273 37 18.5 37C28.7173 37 37 28.7173 37 18.5C37 8.28273 28.7173 0 18.5 0C8.28273 0 0 8.28273 0 18.5ZM15.1075 26.9793L15.4223 22.2635L15.422 22.2633L24.0005 14.5218C24.377 14.1877 23.9183 14.0247 23.4185 14.3278L12.8314 21.0071L8.25839 19.5798C7.27081 19.2774 7.26372 18.5988 8.48011 18.1109L26.3002 11.2395C27.1141 10.87 27.8997 11.435 27.589 12.6807L24.5542 26.9817C24.3423 27.9979 23.7283 28.241 22.8775 27.7715L18.2546 24.3561L16.0325 26.5168C16.0255 26.5236 16.0185 26.5304 16.0116 26.5371C15.7631 26.7791 15.5574 26.9793 15.1075 26.9793Z" fill="#0000AF"/>
</svg>
