<svg width="21" height="22" viewBox="0 0 21 22" fill="none" xmlns="http://www.w3.org/2000/svg">
<path d="M10.5 21.5C16.299 21.5 21 16.799 21 11C21 5.20101 16.299 0.5 10.5 0.5C4.70101 0.5 0 5.20101 0 11C0 16.799 4.70101 21.5 10.5 21.5Z" fill="#62D689"/>
<path fill-rule="evenodd" clip-rule="evenodd" d="M10.8459 16.8417H10.8433C9.79836 16.8413 8.77159 16.5792 7.85964 16.0817L4.5498 16.95L5.43557 13.7146C4.88919 12.7677 4.60168 11.6936 4.60215 10.5932C4.60352 7.15072 7.40441 4.34998 10.8458 4.34998C12.5161 4.3507 14.0837 5.00092 15.2625 6.18109C16.4413 7.36121 17.0901 8.92987 17.0895 10.5981C17.0881 14.0398 14.2883 16.8403 10.8459 16.8417ZM8.01299 14.9514L8.20249 15.0639C8.99926 15.5367 9.91259 15.7869 10.8438 15.7873H10.8459C13.7062 15.7873 16.0341 13.4592 16.0353 10.5978C16.0358 9.21113 15.4966 7.90733 14.5168 6.92641C13.537 5.94549 12.234 5.40502 10.8479 5.40454C7.98546 5.40454 5.65745 7.73234 5.65632 10.5936C5.65592 11.5741 5.93028 12.5291 6.44975 13.3553L6.57314 13.5517L6.04889 15.4667L8.01299 14.9514ZM13.7777 11.9424C13.8865 11.995 13.96 12.0305 13.9914 12.0829C14.0304 12.1479 14.0304 12.4603 13.9004 12.8247C13.7704 13.1891 13.1471 13.5217 12.8474 13.5665C12.5786 13.6067 12.2385 13.6235 11.8648 13.5047C11.6382 13.4328 11.3476 13.3368 10.9754 13.1761C9.51287 12.5445 8.5245 11.127 8.3377 10.8591C8.32461 10.8404 8.31546 10.8272 8.31035 10.8204L8.3091 10.8187C8.22654 10.7086 7.67334 9.97047 7.67334 9.20657C7.67334 8.48797 8.02633 8.11131 8.18881 7.93793C8.19994 7.92605 8.21018 7.91513 8.21935 7.90511C8.36235 7.74892 8.53137 7.70988 8.63537 7.70988C8.73936 7.70988 8.84348 7.71084 8.93437 7.7154C8.94559 7.71597 8.95725 7.7159 8.96931 7.71583C9.06023 7.71529 9.17357 7.71463 9.28538 7.9832C9.32839 8.08657 9.39134 8.2398 9.45772 8.40142C9.59196 8.72823 9.74028 9.08932 9.76638 9.14157C9.80539 9.21967 9.83138 9.31074 9.77938 9.4149C9.77157 9.43052 9.76436 9.44526 9.75746 9.45934C9.7184 9.53908 9.68967 9.59774 9.62338 9.67514C9.59731 9.70557 9.57037 9.73838 9.54343 9.77119C9.48976 9.83655 9.43609 9.90191 9.38936 9.94846C9.31126 10.0263 9.22996 10.1107 9.32097 10.2668C9.41197 10.423 9.72506 10.9339 10.1888 11.3476C10.6874 11.7923 11.1207 11.9802 11.3403 12.0755C11.3832 12.0941 11.4179 12.1091 11.4434 12.1219C11.5994 12.2 11.6904 12.1869 11.7814 12.0829C11.8724 11.9787 12.1714 11.6273 12.2754 11.4711C12.3794 11.315 12.4834 11.341 12.6264 11.3931C12.7694 11.4452 13.5364 11.8225 13.6924 11.9006C13.7229 11.9159 13.7513 11.9296 13.7777 11.9424Z" fill="#FDFDFD"/>
</svg>
