<svg width="24" height="24" viewBox="0 0 24 24" fill="none" xmlns="http://www.w3.org/2000/svg">
<path d="M11.8465 17.8473C10.2367 17.8473 8.95703 19.128 8.95703 20.7393C8.95703 22.3092 10.2367 23.6312 11.8465 23.6312C13.4976 23.6312 14.736 22.3092 14.736 20.7393C14.736 19.128 13.4151 17.8473 11.8465 17.8473Z" fill="black"/>
<path d="M18.9905 12.8192C19.4687 11.8294 19.0611 10.6277 18.0264 10.2569C16.1489 9.58408 14.115 9.21289 12.0116 9.21289C9.85826 9.21289 7.77566 9.61436 5.85304 10.328C4.82771 10.7086 4.42711 11.9044 4.90286 12.8892L4.9711 13.0305C5.45935 14.0411 6.68076 14.4359 7.74483 14.0787C9.08379 13.6293 10.5103 13.3856 12.0116 13.3856C13.473 13.3856 14.8607 13.6068 16.1624 14.0246C17.2246 14.3655 18.4353 13.9685 18.9205 12.9641L18.9905 12.8192Z" fill="#0000AF"/>
<path d="M22.9623 4.5498C23.4363 3.56235 23.0303 2.36967 22.0156 1.95731C18.9036 0.69264 15.5174 0 11.9294 0C8.3315 0 4.90755 0.696462 1.77907 1.99211C0.773737 2.40846 0.37652 3.59379 0.847374 4.57479L1.14281 5.19031C1.62636 6.19775 2.83918 6.60446 3.88121 6.20083C6.37546 5.23469 9.09999 4.70978 11.9294 4.70978C14.7625 4.70978 17.4641 5.23604 19.9504 6.18358C20.9864 6.57842 22.1852 6.16892 22.665 5.16938L22.9623 4.5498Z" fill="#0000AF"/>
</svg>
