<svg width="145" height="58" viewBox="0 0 145 58" fill="none" xmlns="http://www.w3.org/2000/svg">
<path d="M115.129 19.9048C113.608 19.9048 112.399 21.1495 112.399 22.7155C112.399 24.2413 113.608 25.5261 115.129 25.5261C116.689 25.5261 117.859 24.2413 117.859 22.7155C117.859 21.1495 116.611 19.9048 115.129 19.9048Z" fill="#0000AF"/>
<path d="M121.866 15.0467C122.326 14.0674 121.931 12.8782 120.914 12.5076C119.155 11.8662 117.252 11.5127 115.285 11.5127C113.27 11.5127 111.321 11.8953 109.519 12.5764C108.512 12.9569 108.123 14.138 108.58 15.1122C109.065 16.1441 110.314 16.5524 111.396 16.1934C112.62 15.7875 113.92 15.5681 115.285 15.5681C116.613 15.5681 117.876 15.7669 119.065 16.1431C120.145 16.485 121.384 16.0722 121.866 15.0467Z" fill="#FFB800"/>
<path d="M125.623 7.00049C126.079 6.02356 125.681 4.85267 124.685 4.43917C121.759 3.22384 118.577 2.55859 115.207 2.55859C111.827 2.55859 108.609 3.22773 105.667 4.47309C104.681 4.89047 104.292 6.05395 104.745 7.02431L104.967 7.5005C105.447 8.52899 106.683 8.94284 107.741 8.53056C110.06 7.62638 112.586 7.13597 115.207 7.13597C117.832 7.13597 120.338 7.62777 122.649 8.51516C123.7 8.91874 124.922 8.50205 125.398 7.48166L125.623 7.00049Z" fill="#FFB800"/>
<path d="M121.866 15.0467C122.326 14.0674 121.931 12.8782 120.914 12.5076C119.155 11.8662 117.252 11.5127 115.285 11.5127C113.27 11.5127 111.321 11.8953 109.519 12.5764C108.512 12.9569 108.123 14.138 108.58 15.1122C109.065 16.1441 110.314 16.5524 111.396 16.1934C112.62 15.7875 113.92 15.5681 115.285 15.5681C116.613 15.5681 117.876 15.7669 119.065 16.1431C120.145 16.485 121.384 16.0722 121.866 15.0467Z" fill="#FFB800"/>
<path d="M125.623 7.00049C126.079 6.02356 125.681 4.85267 124.685 4.43917C121.759 3.22384 118.577 2.55859 115.207 2.55859C111.827 2.55859 108.609 3.22773 105.667 4.47309C104.681 4.89047 104.292 6.05395 104.745 7.02431L104.967 7.5005C105.447 8.52899 106.683 8.94284 107.741 8.53056C110.06 7.62638 112.586 7.13597 115.207 7.13597C117.832 7.13597 120.338 7.62777 122.649 8.51516C123.7 8.91874 124.922 8.50205 125.398 7.48166L125.623 7.00049Z" fill="#FFB800"/>
<path d="M26.4742 26.4093H26.6302C27.6833 26.4093 28.5414 27.373 29.2044 29.3003L35.0549 41.6271C39.3453 32.2314 41.6856 27.3328 42.0366 26.9313C42.5046 26.5699 42.9727 26.3691 43.4797 26.3691C44.8448 26.6101 45.5079 27.3328 45.5079 28.4169V28.4972C45.5079 28.8586 44.4158 31.3882 42.1926 36.1262L36.6151 47.931C36.03 48.3727 35.523 48.6136 35.0939 48.6136H35.0159C33.8848 48.6136 32.9488 47.5295 32.2077 45.3211C27.4103 35.2428 24.875 29.742 24.563 28.8586V28.3366C24.758 27.0517 25.3821 26.4093 26.4742 26.4093Z" fill="#FFB800"/>
<path d="M19.6485 46.325C18.0493 47.8909 15.9041 48.6538 13.2519 48.6538H12.6668C9.00048 48.6538 5.95821 46.7666 3.53999 43.0324C2.64291 41.2256 2.21387 39.3786 2.21387 37.5316C2.21387 33.436 4.16404 30.1435 8.1034 27.7344C9.78056 26.9313 11.3797 26.5298 12.9788 26.5298C17.0352 26.5298 20.2725 28.5776 22.6127 32.6731C23.3538 34.3595 23.7048 36.0861 23.7048 37.8528V46.6863C23.7048 47.7704 23.0418 48.453 21.7546 48.6538H21.5986C20.7016 48.6538 20.0385 48.0917 19.6095 47.0075V46.7666L19.6485 46.325ZM6.34824 37.4111V37.652C6.34824 40.4627 7.71337 42.5506 10.4436 43.956C11.3017 44.2772 12.0428 44.4378 12.7448 44.4378H13.3299C15.5921 44.4378 17.4253 43.2734 18.9074 40.9445C19.4534 39.8604 19.6875 38.8164 19.6875 37.8126V37.4914C19.6875 34.8012 18.4003 32.7534 15.8261 31.3079C14.929 30.9064 14.0319 30.7056 13.0569 30.7056H12.9788C10.2486 30.7056 8.18141 32.1913 6.77729 35.1224C6.46526 36.0459 6.34824 36.8088 6.34824 37.4111Z" fill="#FFB800"/>
<path d="M52.0992 19.0215H52.4503C53.6984 19.3026 54.2834 19.9048 54.2834 20.8283V26.4095H56.6627L57.3257 26.3292C58.3398 26.3292 59.0029 27.0118 59.3149 28.377C59.3149 29.3808 58.7298 30.1437 57.5597 30.5452L56.3506 30.4649H54.2834V41.3864C54.2834 43.0327 54.7515 43.9963 55.6486 44.3175L57.2087 44.4782H57.9888C58.9639 44.4782 59.5489 45.1206 59.8219 46.4456V46.6464C59.5879 47.9714 58.9249 48.6139 57.8328 48.6139H56.3116C53.7374 48.6139 51.8262 47.1684 50.5781 44.3175C50.3441 43.5948 50.2271 42.7516 50.2271 41.8281V30.4248H49.408L48.1209 30.5051C46.9508 30.0634 46.3657 29.3808 46.3657 28.3369C46.5997 27.0118 47.0288 26.3694 47.6918 26.3694V26.2088L49.057 26.3694H50.2271V21.2299C50.4221 19.7442 51.0071 19.0215 52.0992 19.0215Z" fill="#FFB800"/>
<path d="M70.8212 26.6104C73.5904 26.6104 76.0867 27.6945 78.3099 29.8225C80.4551 32.1112 81.5082 34.7211 81.5082 37.6121C81.5082 41.7478 79.597 45.0002 75.8137 47.329C74.1755 48.1722 72.5764 48.6139 71.0162 48.6139H70.4312C67.5449 48.6139 64.8537 47.2086 62.3964 44.438C60.8753 42.2297 60.0952 39.941 60.0952 37.6121C60.0952 34.0386 61.6164 31.0271 64.6976 28.618C66.6868 27.2929 68.715 26.6104 70.8212 26.6104ZM64.2686 37.4114V37.7727C64.2686 40.3024 65.4777 42.31 67.8569 43.7153C68.715 44.157 69.6121 44.3979 70.5872 44.3979H71.0162C73.5514 44.3979 75.5406 43.0327 76.9058 40.3023C77.2178 39.4591 77.3738 38.6159 77.3738 37.8129V37.4515C77.3738 35.3234 76.4377 33.5567 74.5265 32.1112C73.4344 31.3483 72.1473 30.9468 70.7432 30.9468C67.9349 30.9468 65.9067 32.4726 64.5806 35.4841C64.3856 36.1265 64.2686 36.7689 64.2686 37.4114Z" fill="#FFB800"/>
<path d="M84.9404 18.1382H85.2914C86.5396 18.4193 87.1636 19.0617 87.1636 20.0655V28.6581C88.8018 27.052 91.064 26.249 93.9502 26.249C96.7585 26.249 99.2937 27.3331 101.556 29.5013C103.74 31.8302 104.793 34.4802 104.793 37.4114C104.793 41.5872 102.882 44.9199 99.0207 47.2889C97.3435 48.1722 95.7054 48.6139 94.1453 48.6139H93.5212C90.5959 48.6139 87.8657 47.2086 85.3304 44.3979C83.7703 42.2698 82.9902 39.7804 82.9902 36.8894V20.0655C83.0292 19.1019 83.6533 18.4594 84.9404 18.1382ZM87.1636 37.2106V37.6121C87.1636 40.5031 88.6457 42.6714 91.571 44.0767C92.3511 44.3176 93.0531 44.4381 93.6772 44.4381H94.1453C96.8755 44.4381 98.9427 42.9123 100.347 39.9008C100.581 38.9773 100.698 38.2947 100.698 37.8129V37.2909C100.698 34.3999 99.2157 32.2719 96.2124 30.8264C95.3154 30.5855 94.5743 30.465 94.1062 30.465H93.7942C91.064 30.465 88.9968 31.9506 87.5926 34.9219C87.2806 35.8053 87.1636 36.5682 87.1636 37.2106Z" fill="#0000AF"/>
<path d="M123.71 26.4092C123.242 26.4092 122.774 26.6099 122.267 26.9713C121.915 27.3728 119.575 32.2714 115.285 41.6671L109.434 29.3403C108.771 27.413 107.913 26.4493 106.86 26.4493H106.704C105.651 26.4493 104.988 27.0918 104.754 28.3766V28.8986C105.027 29.782 107.601 35.2829 112.399 45.3612C112.555 45.843 112.75 46.2847 112.945 46.6862L110.253 52.4681C109.785 53.5121 110.175 54.7568 111.189 55.2387C112.204 55.7205 113.413 55.319 113.881 54.275L117.079 47.4089L122.384 36.2064C124.607 31.4684 125.699 28.9388 125.699 28.5774V28.457C125.738 27.3327 125.075 26.6501 123.71 26.4092Z" fill="#0000AF"/>
<path d="M135.84 26.4497C139.625 26.6933 141.885 28.8589 142.08 29.6619C142.275 30.465 142.08 30.8665 142.08 30.8665C142.08 30.8665 141.495 32.0711 140.715 32.0711C139.935 32.0711 140.13 31.8703 138.375 30.8665C136.62 29.8627 132.719 29.4612 131.744 31.6696C130.769 33.878 133.989 34.964 137.205 35.8856C141.078 36.9956 141.885 38.4955 142.47 40.1016C143.055 41.7077 142.665 43.7153 142.275 44.7191C141.885 45.5221 140.637 47.1283 138.765 47.9313C136.893 48.7344 133.5 48.5336 131.744 48.1321C130.119 47.6636 127.064 46.1244 127.064 44.7191C127.064 43.3138 128.234 42.7115 128.819 42.7115C129.404 42.7115 129.443 42.9524 131.159 43.9161C133.305 45.1207 136.23 45.1206 137.595 44.1168C138.96 43.113 138.765 41.7077 137.79 40.7039C136.815 39.7001 132.524 38.4955 131.549 38.094C130.574 37.6924 126.089 35.484 127.454 31.0673C128.819 26.6505 133.76 26.3159 135.84 26.4497Z" fill="#0000AF"/>
</svg>
