<svg width="241" height="641" viewBox="0 0 241 641" fill="none" xmlns="http://www.w3.org/2000/svg">
<path d="M98.5 595.094L98.5 494.294H137.5L137.5 595.094H98.5ZM214 591.494V640.094H3.99999L3.99999 481.394H43L43 591.494H214ZM214 483.089L3.99999 389.489L3.99999 341.489L214 247.589V298.589L28.6 375.389L28.6 356.189L214 433.289V483.089ZM169 436.289L132.1 423.389L132.1 315.389L169 302.189L169 436.289ZM217.6 125.531C217.6 141.931 214.9 157.231 209.5 171.431C204.1 185.431 196.5 197.631 186.7 208.031C176.9 218.231 165.4 226.231 152.2 232.031C139 237.631 124.6 240.431 109 240.431C93.4 240.431 79 237.631 65.8 232.031C52.6 226.231 41.1 218.131 31.3 207.731C21.5 197.331 13.9 185.131 8.49998 171.131C3.09999 157.131 0.399996 141.931 0.399996 125.531C0.399996 108.931 3.09999 93.7309 8.49998 79.9309C13.9 65.9308 21.5 53.8308 31.3 43.6308C40.9 33.2308 52.3 25.1308 65.5 19.3309C78.7 13.5308 93.2 10.6308 109 10.6308C124.6 10.6308 139.1 13.5308 152.5 19.3309C165.7 25.1308 177.2 33.2308 187 43.6308C196.6 53.8308 204.1 65.9308 209.5 79.9309C214.9 93.7309 217.6 108.931 217.6 125.531ZM262.3 56.8309C262.3 65.0309 261.4 72.8309 259.6 80.2309C257.8 87.4309 254.9 94.6309 250.9 101.831C246.9 108.831 241.5 116.231 234.7 124.031C227.9 131.631 219.5 139.931 209.5 148.931L196.6 97.9309C204 92.5309 209.9 87.5309 214.3 82.9309C218.7 78.3309 221.8 73.9309 223.6 69.7308C225.4 65.3308 226.3 60.7308 226.3 55.9308C226.3 43.1308 221.1 31.7308 210.7 21.7309L236.5 0.130849C253.7 14.3308 262.3 33.2308 262.3 56.8309ZM176.2 125.531C176.2 116.131 174.6 107.531 171.4 99.7309C168.2 91.7309 163.6 84.7309 157.6 78.7309C151.6 72.7309 144.5 68.1309 136.3 64.9309C127.9 61.5309 118.8 59.8308 109 59.8308C99 59.8308 89.9 61.5309 81.7 64.9309C73.5 68.1309 66.4 72.7309 60.4 78.7309C54.4 84.7309 49.8 91.7309 46.6 99.7309C43.4 107.531 41.8 116.131 41.8 125.531C41.8 134.931 43.4 143.631 46.6 151.631C49.8 159.631 54.4 166.631 60.4 172.631C66.4 178.431 73.5 183.031 81.7 186.431C89.9 189.631 99 191.231 109 191.231C118.8 191.231 127.9 189.631 136.3 186.431C144.5 183.031 151.6 178.431 157.6 172.631C163.6 166.631 168.2 159.631 171.4 151.631C174.6 143.631 176.2 134.931 176.2 125.531Z" fill="#D0E3FF" fill-opacity="0.28"/>
</svg>
