<svg width="152" height="79" viewBox="0 0 152 79" fill="none" xmlns="http://www.w3.org/2000/svg">
<path d="M7.17499 0.186267C6.72558 -0.134742 6.10103 -0.0306507 5.78002 0.418762L0.548873 7.74236C0.227864 8.19178 0.331955 8.81633 0.781368 9.13733C1.23078 9.45834 1.85533 9.35425 2.17634 8.90484L6.82625 2.39497L13.3361 7.04488C13.7855 7.36589 14.4101 7.26179 14.7311 6.81238C15.0521 6.36297 14.948 5.73842 14.4986 5.41741L7.17499 0.186267ZM6.59375 1C5.60736 1.1644 5.60745 1.16495 5.60758 1.16574C5.60768 1.16632 5.60785 1.16735 5.60805 1.16852C5.60844 1.17085 5.60899 1.17414 5.60971 1.17838C5.61114 1.18685 5.61323 1.19912 5.61598 1.21513C5.62149 1.24715 5.62965 1.29413 5.64056 1.35564C5.66237 1.47866 5.69516 1.65979 5.73961 1.89552C5.82852 2.36697 5.96411 3.05688 6.15189 3.93715C6.52742 5.69751 7.1119 8.22008 7.94956 11.2797C9.62417 17.3964 12.3142 25.6725 16.3765 34.301C24.4815 51.5161 38.1587 70.3583 60.3486 75.9695L60.8389 74.0305C39.5288 68.6417 26.206 50.4839 18.186 33.449C14.1858 24.9525 11.5321 16.7911 9.87857 10.7516C9.05216 7.73305 8.47649 5.2478 8.10788 3.51988C7.92359 2.65601 7.79111 1.98166 7.70497 1.52489C7.6619 1.29651 7.63042 1.12253 7.60984 1.00648C7.59955 0.948453 7.59199 0.904907 7.58707 0.876281C7.58461 0.861968 7.58281 0.851384 7.58166 0.844586C7.58108 0.841187 7.58067 0.838734 7.58042 0.837234C7.58029 0.836484 7.58022 0.836076 7.58016 0.8357C7.58013 0.835531 7.58014 0.835601 6.59375 1ZM60.3486 75.9695C82.4231 81.5515 105.302 75.0717 122.567 67.2866C131.215 63.3871 138.493 59.1431 143.609 55.8739C146.167 54.2389 148.187 52.8465 149.57 51.8612C150.261 51.3685 150.793 50.9776 151.153 50.7088C151.333 50.5745 151.471 50.4707 151.563 50.4C151.61 50.3646 151.645 50.3376 151.669 50.3191C151.681 50.3099 151.69 50.3028 151.697 50.2979C151.7 50.2954 151.702 50.2935 151.704 50.2922C151.705 50.2915 151.706 50.2909 151.706 50.2906C151.707 50.2901 151.707 50.2898 151.094 49.5C150.48 48.7102 150.48 48.7102 150.48 48.7103C150.48 48.7105 150.48 48.7107 150.479 48.7111C150.478 48.712 150.476 48.7134 150.474 48.7154C150.469 48.7193 150.461 48.7255 150.45 48.7337C150.428 48.7503 150.396 48.7754 150.352 48.8088C150.264 48.8755 150.132 48.9753 149.957 49.1056C149.608 49.3662 149.088 49.7487 148.409 50.2326C147.051 51.2004 145.059 52.5737 142.532 54.1886C137.476 57.4194 130.285 61.6129 121.745 65.4634C104.636 73.1782 82.2644 79.4485 60.8389 74.0305L60.3486 75.9695Z" fill="#1F1F1F" fill-opacity="0.6"/>
</svg>
