<svg width="150" height="85" viewBox="0 0 150 85" fill="none" xmlns="http://www.w3.org/2000/svg">
<path d="M144.922 83.5929C144.633 84.0635 144.017 84.2106 143.546 83.9215L135.878 79.2108C135.407 78.9217 135.26 78.3058 135.549 77.8353C135.838 77.3647 136.454 77.2175 136.924 77.5066L143.741 81.694L147.928 74.8774C148.218 74.4068 148.833 74.2596 149.304 74.5487C149.775 74.8378 149.922 75.4536 149.633 75.9242L144.922 83.5929ZM1 30.5C0.333356 29.7546 0.333773 29.7543 0.33437 29.7537C0.334811 29.7533 0.335591 29.7526 0.336473 29.7518C0.338237 29.7503 0.340726 29.748 0.343936 29.7452C0.350356 29.7395 0.35966 29.7312 0.371824 29.7204C0.396151 29.6989 0.431914 29.6674 0.478905 29.6262C0.572887 29.5439 0.711789 29.4231 0.893951 29.267C1.25826 28.9549 1.79567 28.5015 2.49289 27.9322C3.8872 26.7939 5.92138 25.1917 8.48906 23.3289C13.6223 19.6049 20.8986 14.8316 29.466 10.642C46.5593 2.283 69.0175 -3.85893 89.8387 5.64653L89.0081 7.46591C69.0124 -1.66271 47.2588 4.16725 30.3447 12.4387C21.9083 16.5642 14.732 21.2708 9.66349 24.9478C7.1303 26.7855 5.12634 28.3642 3.75773 29.4815C3.07349 30.0401 2.54824 30.4833 2.19527 30.7858C2.01878 30.937 1.88538 31.053 1.79672 31.1307C1.75239 31.1695 1.71925 31.1987 1.6975 31.218C1.68662 31.2276 1.6786 31.2347 1.67345 31.2393C1.67087 31.2416 1.66901 31.2433 1.66788 31.2443C1.66731 31.2448 1.667 31.2451 1.66672 31.2453C1.66659 31.2454 1.66664 31.2454 1 30.5ZM89.8387 5.64653C110.552 15.1026 124.346 34.4714 132.944 51.3466C137.251 59.7992 140.273 67.6631 142.218 73.4142C143.191 76.2905 143.896 78.6405 144.358 80.2739C144.589 81.0907 144.759 81.7285 144.872 82.1636C144.929 82.3811 144.971 82.548 144.999 82.6612C145.013 82.7178 145.024 82.761 145.031 82.7905C145.035 82.8052 145.037 82.8165 145.039 82.8242C145.04 82.8281 145.041 82.8311 145.041 82.8333C145.042 82.8344 145.042 82.8353 145.042 82.8358C145.042 82.8366 145.042 82.8371 144.07 83.0695C143.097 83.3018 143.097 83.3019 143.097 83.3017C143.097 83.3014 143.097 83.301 143.097 83.3003C143.096 83.299 143.096 83.2967 143.095 83.2936C143.094 83.2873 143.091 83.2776 143.088 83.2644C143.082 83.238 143.072 83.198 143.058 83.1445C143.032 83.0376 142.991 82.8771 142.937 82.6662C142.827 82.2443 142.66 81.6204 142.434 80.8182C141.98 79.2136 141.285 76.8961 140.324 74.0552C138.401 68.3716 135.415 60.6011 131.162 52.2546C122.641 35.5317 109.112 16.6439 89.0081 7.46591L89.8387 5.64653Z" fill="#1F1F1F" fill-opacity="0.6"/>
</svg>
