<svg width="158" height="157" viewBox="0 0 158 157" fill="none" xmlns="http://www.w3.org/2000/svg">
<path d="M79.0117 78.3819V0.370934C86.3763 0.370934 93.7039 1.4138 100.776 3.46846L79.0117 78.3819Z" fill="#FD983B"/>
<path d="M79.0117 78.382L100.776 3.46852C110.218 6.21164 119.056 10.7149 126.825 16.7412L79.0117 78.382Z" fill="#FFEDE1"/>
<path d="M79.0117 78.382L126.825 16.7412C138.522 25.8144 147.396 38.0284 152.411 51.9567L79.0117 78.382Z" fill="#FFBF95"/>
<path d="M79.0117 78.3819L152.411 51.9566C152.964 53.494 153.469 55.0484 153.925 56.6175L79.0117 78.3819Z" fill="#F8B6DA"/>
<path d="M79.0117 78.3818L153.925 56.6174C165.945 97.991 142.15 141.275 100.776 153.295C59.4025 165.315 16.1184 141.52 4.09825 100.146C-7.92188 58.7726 15.8738 15.4885 57.2473 3.46836C64.3195 1.4137 71.647 0.370834 79.0117 0.370834V78.3818Z" fill="#74C5FF"/>
</svg>
